<svg width="103" height="73" viewBox="0 0 103 73" fill="none" xmlns="http://www.w3.org/2000/svg">
<path fill-rule="evenodd" clip-rule="evenodd" d="M68.0005 0.53418L71.1244 3.0333V71.9153H68.0005V0.53418ZM35.7832 39.2518L32.7372 40.8913L7.19932 54.6364L6.11217 55.2216V56.4562V60.6253C5.76027 60.8554 5.32171 61.1395 4.84356 61.448C3.70159 62.1846 2.34988 63.0494 1.4535 63.621L0.498047 64.2303V65.3635V71.8964H4.63122V66.4958C5.09751 66.1976 5.60715 65.8711 6.11217 65.5467V70.3575V72.4241H8.17876H33.7166H35.7832V70.3575V42.711V39.2518ZM31.65 46.1702V68.2909H10.2453V57.6908L31.65 46.1702ZM75.877 40.8913L72.831 39.2518V42.711V70.3575V72.4241H74.8976H100.435H102.502V70.3575V56.4562V55.2216L101.415 54.6364L75.877 40.8913ZM76.9641 68.2909V46.1702L98.3688 57.6908V68.2909H76.9641ZM66.3005 14.7931V11.1741L63.1837 13.0133L38.0363 27.8518L37.0199 28.4515V29.6316V43.2987V44.5209L38.091 45.1097L62.1673 58.3441V68.3319H41.1531V48.4531H41.1433V48.3908L37.0076 46.4136V49.01H37.0199V70.3985V72.4651H39.0865H64.2339H66.3005V70.3985V57.1219V55.8997L65.2294 55.3109L41.1531 42.0764V30.8117L62.1673 18.412V50.6308H62.1469V51.3607L66.2907 53.5156V50.8741H66.3005V14.7931Z" fill="#345995"/>
</svg>
