<svg width="50" height="50" viewBox="0 0 50 50" fill="none" xmlns="http://www.w3.org/2000/svg">
<rect width="50" height="50" rx="25" fill="#F18F01" fill-opacity="0.08"/>
<g clip-path="url(#clip0_1_21187)">
<path d="M15.4052 20.3015C15.2752 20.0292 15.2328 19.7232 15.284 19.4258C15.3352 19.1283 15.4774 18.8541 15.691 18.6409L17.0657 17.2662C17.279 17.053 17.5531 16.9111 17.8503 16.8601C18.1475 16.8091 18.4532 16.8514 18.7253 16.9814L20.1594 15.5473C20.524 15.1828 21.0185 14.978 21.5341 14.978C22.0497 14.978 22.5442 15.1828 22.9088 15.5473L25.6592 18.2978C26.0237 18.6624 26.2285 19.1569 26.2285 19.6725C26.2285 20.1881 26.0237 20.6826 25.6592 21.0472L24.2835 22.4219L24.2349 22.3733L20.7981 25.8111L20.8467 25.8597L19.472 27.2344C19.2914 27.4151 19.077 27.5584 18.8411 27.6561C18.6051 27.7539 18.3522 27.8042 18.0968 27.8042C17.8414 27.8042 17.5885 27.7539 17.3525 27.6561C17.1165 27.5584 16.9021 27.4151 16.7216 27.2344L13.9721 24.485C13.7915 24.3044 13.6482 24.09 13.5504 23.8541C13.4527 23.6181 13.4023 23.3652 13.4023 23.1098C13.4023 22.8544 13.4527 22.6014 13.5504 22.3655C13.6482 22.1295 13.7915 21.9151 13.9721 21.7346L15.4042 20.3015H15.4052ZM22.1719 27.1848L25.6096 23.748L29.096 27.2344L25.6592 30.6722L22.1728 27.1858L22.1719 27.1848ZM27.033 32.0459L30.4707 28.6091L32.1896 30.328C32.6422 30.7845 32.8956 31.4016 32.8943 32.0444C32.8929 32.6872 32.6371 33.3032 32.1826 33.7578C31.7282 34.2124 31.1122 34.4684 30.4694 34.4699C29.8266 34.4714 29.2094 34.2183 28.7528 33.7658L27.0339 32.0469L27.033 32.0459ZM29.7844 16.9221L33.9085 21.0472L30.1762 24.7796C29.5802 25.3755 28.4806 25.2443 27.7213 24.485L26.3466 23.1093C25.5873 22.3509 25.4551 21.2514 26.052 20.6544L29.7834 16.9221H29.7844ZM31.1581 15.5473L31.4527 15.2528C32.0487 14.6558 33.1482 14.788 33.9076 15.5473L35.2823 16.9221C36.0416 17.6814 36.1738 18.7809 35.5769 19.3779L35.2823 19.6725L31.1591 15.5473H31.1581ZM18.7846 30.6722L20.8457 28.6091C20.936 28.5188 21.0432 28.4471 21.1611 28.3982C21.2791 28.3493 21.4056 28.3241 21.5333 28.3241C21.661 28.324 21.7874 28.3491 21.9054 28.398C22.0234 28.4468 22.1306 28.5184 22.221 28.6087C22.3113 28.6989 22.383 28.8061 22.4319 28.9241C22.4808 29.042 22.506 29.1685 22.506 29.2962C22.5061 29.4239 22.481 29.5503 22.4321 29.6683C22.3833 29.7863 22.3117 29.8935 22.2214 29.9839L20.1594 32.0479C20.3416 32.2302 20.444 32.4775 20.444 32.7353C20.444 32.993 20.3416 33.2403 20.1594 33.4226L18.7846 34.7973C18.6943 34.8877 18.5871 34.9594 18.4691 35.0084C18.3511 35.0573 18.2246 35.0825 18.0968 35.0825C17.969 35.0825 17.8425 35.0573 17.7245 35.0084C17.6065 34.9594 17.4992 34.8877 17.4089 34.7973L16.0342 33.4226C15.852 33.2403 15.7496 32.993 15.7496 32.7353C15.7496 32.4775 15.852 32.2302 16.0342 32.0479L17.4089 30.6732C17.4992 30.5828 17.6065 30.5111 17.7245 30.4621C17.8425 30.4132 17.969 30.388 18.0968 30.388C18.2246 30.388 18.3511 30.4132 18.4691 30.4621C18.5871 30.5111 18.6943 30.5828 18.7846 30.6732V30.6722Z" fill="#F18F01"/>
</g>
<defs>
<clipPath id="clip0_1_21187">
<rect width="23.3333" height="23.3333" fill="white" transform="translate(13.334 13.333)"/>
</clipPath>
</defs>
</svg>
