<svg width="41" height="41" viewBox="0 0 41 41" fill="none" xmlns="http://www.w3.org/2000/svg">
<rect width="40.0236" height="40.0236" rx="20.0118" fill="#345995" fill-opacity="0.08"/>
<g clip-path="url(#clip0_1_26045)">
<path d="M15.8017 11.1866C17.6228 9.778 19.5995 11.4979 20.0431 14.175C20.3777 14.175 20.7046 14.2684 21.0003 14.4396C21.405 13.9727 21.763 13.3345 21.6229 12.6186C21.296 10.9454 23.1716 9.59122 24.9537 11.9026C26.3623 13.7237 24.6424 15.7004 21.9575 16.144C21.9575 16.4786 21.8719 16.8133 21.6929 17.109C22.1599 17.5059 22.798 17.8639 23.514 17.7238C25.1716 17.3969 26.5336 19.2647 24.2222 21.0546C22.4011 22.4632 20.4244 20.7433 19.9808 18.0662C19.6462 18.0662 19.3193 17.965 19.0314 17.7938C18.6267 18.2608 18.2609 18.9067 18.401 19.6227C18.7278 21.2881 16.8523 22.65 15.0701 20.3387C13.6537 18.5098 15.3814 16.5331 18.0663 16.0973C18.0663 15.7626 18.1675 15.4358 18.3387 15.14C17.8718 14.7431 17.2336 14.3774 16.5099 14.5175C14.8522 14.8443 13.4903 12.9766 15.8017 11.1866ZM14.5643 23.1248H16.1208C16.5336 23.1248 16.9295 23.2887 17.2213 23.5806C17.5132 23.8725 17.6772 24.2684 17.6772 24.6812V29.3506H16.1208V27.7942H14.5643V29.3506H13.0078V24.6812C13.0078 24.2684 13.1718 23.8725 13.4637 23.5806C13.7556 23.2887 14.1515 23.1248 14.5643 23.1248ZM14.5643 24.6812V26.2377H16.1208V24.6812H14.5643ZM20.7357 23.1248H22.3466L20.0664 29.3506H18.4555L20.7357 23.1248ZM24.6814 23.1248H27.0161V24.6812H24.6814V27.7942H27.0161V29.3506H24.6814C24.2686 29.3506 23.8727 29.1867 23.5808 28.8948C23.2889 28.6029 23.1249 28.207 23.1249 27.7942V24.6812C23.1249 24.2684 23.2889 23.8725 23.5808 23.5806C23.8727 23.2887 24.2686 23.1248 24.6814 23.1248Z" fill="#345995"/>
</g>
<defs>
<clipPath id="clip0_1_26045">
<rect width="18.6777" height="18.6777" fill="white" transform="translate(10.6738 10.6729)"/>
</clipPath>
</defs>
</svg>
