<svg width="41" height="41" viewBox="0 0 41 41" fill="none" xmlns="http://www.w3.org/2000/svg">
<rect width="40.0236" height="40.0236" rx="20.0118" fill="#345995" fill-opacity="0.08"/>
<path d="M25.5772 16.8986C25.4414 16.6633 25.2464 16.4677 25.0116 16.3312C24.7767 16.1947 24.5103 16.122 24.2387 16.1204H22.3475V14.5639C22.3475 14.3575 22.2655 14.1595 22.1196 14.0136C21.9736 13.8676 21.7757 13.7856 21.5693 13.7856H13.7869C13.3741 13.7856 12.9782 13.9496 12.6863 14.2415C12.3945 14.5334 12.2305 14.9293 12.2305 15.3421V23.1245C12.2307 23.3974 12.3028 23.6655 12.4394 23.9018C12.576 24.1381 12.7723 24.3344 13.0087 24.4708C12.9808 25.1932 13.2411 25.8971 13.7322 26.4276C14.2233 26.9582 14.9051 27.2719 15.6275 27.2997C16.3499 27.3276 17.0538 27.0673 17.5843 26.5762C18.1148 26.0851 18.4285 25.4034 18.4564 24.681H20.8689C20.9549 25.3321 21.2747 25.9298 21.7686 26.3627C22.2626 26.7957 22.897 27.0344 23.5538 27.0344C24.2106 27.0344 24.845 26.7957 25.339 26.3627C25.8329 25.9298 26.1527 25.3321 26.2387 24.681C26.6515 24.681 27.0474 24.517 27.3393 24.2251C27.6312 23.9332 27.7952 23.5373 27.7952 23.1245V20.7898C27.794 20.6478 27.7565 20.5085 27.6862 20.3851L25.5772 16.8986ZM22.3475 17.6768H24.2387L25.6395 20.0115H22.3475V17.6768ZM15.7325 25.4592C15.5017 25.4592 15.276 25.3907 15.084 25.2625C14.892 25.1342 14.7424 24.9519 14.654 24.7386C14.5657 24.5253 14.5426 24.2905 14.5876 24.0641C14.6326 23.8376 14.7438 23.6296 14.9071 23.4664C15.0703 23.3031 15.2783 23.192 15.5048 23.1469C15.7312 23.1019 15.966 23.125 16.1793 23.2133C16.3926 23.3017 16.5749 23.4513 16.7032 23.6433C16.8314 23.8353 16.8999 24.061 16.8999 24.2918C16.8999 24.6014 16.7769 24.8984 16.558 25.1173C16.3391 25.3362 16.0421 25.4592 15.7325 25.4592ZM23.5149 25.4592C23.284 25.4592 23.0583 25.3907 22.8663 25.2625C22.6744 25.1342 22.5248 24.9519 22.4364 24.7386C22.348 24.5253 22.3249 24.2905 22.37 24.0641C22.415 23.8376 22.5262 23.6296 22.6894 23.4664C22.8527 23.3031 23.0607 23.192 23.2872 23.1469C23.5136 23.1019 23.7483 23.125 23.9616 23.2133C24.1749 23.3017 24.3572 23.4513 24.4855 23.6433C24.6138 23.8353 24.6822 24.061 24.6822 24.2918C24.6822 24.6014 24.5593 24.8984 24.3403 25.1173C24.1214 25.3362 23.8245 25.4592 23.5149 25.4592Z" fill="#345995"/>
</svg>
