<svg width="41" height="41" viewBox="0 0 41 41" fill="none" xmlns="http://www.w3.org/2000/svg">
<rect width="40.0236" height="40.0236" rx="20.0118" fill="#4CAF50" fill-opacity="0.08"/>
<path d="M25.6778 14.5094L24.0279 12.8596C23.4209 12.2525 22.4326 12.2525 21.8255 12.8596L19.6231 15.062L21.273 16.7118L22.9229 15.062L25.6778 17.8169C26.1151 17.3776 26.3606 16.783 26.3606 16.1632C26.3606 15.5433 26.1151 14.9487 25.6778 14.5094ZM14.9459 21.389C15.4051 21.8482 16.1444 21.8482 16.5958 21.389L18.518 19.4668L16.8682 17.8091L14.9459 19.7314C14.4868 20.1905 14.4868 20.9299 14.9459 21.389Z" fill="#6FB07F"/>
<path d="M22.3784 16.7121L21.8258 17.2646L21.2733 17.8172L18.7985 15.3424C18.3393 14.8755 17.6 14.8755 17.1486 15.3346C17.0394 15.4425 16.9528 15.5709 16.8936 15.7125C16.8344 15.8541 16.804 16.0061 16.804 16.1595C16.804 16.313 16.8344 16.465 16.8936 16.6066C16.9528 16.7482 17.0394 16.8766 17.1486 16.9845L19.6234 19.4593L19.0709 20.0118L14.1213 24.9614C13.5143 25.5684 13.5143 26.5568 14.1213 27.1638C14.7283 27.7708 15.7167 27.7708 16.3237 27.1638L23.4757 20.0118C23.5477 20.0839 23.6333 20.141 23.7274 20.18C23.8215 20.219 23.9224 20.2391 24.0243 20.2391C24.1262 20.2391 24.2271 20.219 24.3213 20.18C24.4154 20.141 24.5009 20.0839 24.573 20.0118C24.645 19.9398 24.7022 19.8542 24.7412 19.7601C24.7802 19.6659 24.8003 19.5651 24.8003 19.4632C24.8003 19.3613 24.7802 19.2604 24.7412 19.1662C24.7022 19.0721 24.645 18.9866 24.573 18.9145L22.3784 16.7121Z" fill="#6FB07F"/>
</svg>
