<svg width="41" height="41" viewBox="0 0 41 41" fill="none" xmlns="http://www.w3.org/2000/svg">
<rect width="40.0236" height="40.0236" rx="20.0118" fill="#FF9800" fill-opacity="0.08"/>
<path d="M27.5682 26.4634L26.4631 27.5685C26.3173 27.7135 26.12 27.7948 25.9144 27.7948C25.7088 27.7948 25.5116 27.7135 25.3658 27.5685L16.1203 18.3386C15.8672 18.412 15.6055 18.4512 15.3421 18.4554C14.8466 18.455 14.3583 18.3364 13.9179 18.1093C13.4775 17.8823 13.0976 17.5534 12.8099 17.15C12.5222 16.7466 12.3349 16.2803 12.2637 15.79C12.1925 15.2996 12.2393 14.7993 12.4003 14.3307L14.3771 16.3074L14.7895 15.895L15.8946 14.7899L16.3071 14.3774L14.3304 12.4007C14.799 12.2397 15.2992 12.1928 15.7896 12.2641C16.28 12.3353 16.7462 12.5225 17.1496 12.8103C17.553 13.098 17.8819 13.4778 18.109 13.9183C18.336 14.3587 18.4547 14.8469 18.455 15.3424C18.4509 15.6059 18.4116 15.8676 18.3383 16.1207L27.5682 25.3661C27.7131 25.5119 27.7945 25.7092 27.7945 25.9148C27.7945 26.1204 27.7131 26.3176 27.5682 26.4634ZM12.4548 25.3661C12.3099 25.5119 12.2285 25.7092 12.2285 25.9148C12.2285 26.1204 12.3099 26.3176 12.4548 26.4634L13.5599 27.5685C13.7057 27.7135 13.903 27.7948 14.1086 27.7948C14.3142 27.7948 14.5114 27.7135 14.6572 27.5685L18.9142 23.3194L16.7118 21.1169L12.4548 25.3661ZM26.2374 12.2295L23.1244 13.786V15.3424L21.4357 17.0312L22.9921 18.5877L24.6809 16.8989H26.2374L27.7939 13.786L26.2374 12.2295Z" fill="#FF981F"/>
</svg>
