<svg width="41" height="41" viewBox="0 0 41 41" fill="none" xmlns="http://www.w3.org/2000/svg">
<rect width="40.0236" height="40.0236" rx="20.0118" fill="#6FB07F" fill-opacity="0.05"/>
<path d="M24.6824 13.786V13.0077C24.6824 12.5797 24.3322 12.2295 23.9042 12.2295H14.5653C14.1373 12.2295 13.7871 12.5797 13.7871 13.0077V16.1207C13.7871 16.5487 14.1373 16.8989 14.5653 16.8989H23.9042C24.3322 16.8989 24.6824 16.5487 24.6824 16.1207V15.3424H25.4607V18.4554H18.4565C18.0285 18.4554 17.6783 18.8056 17.6783 19.2336V27.016C17.6783 27.444 18.0285 27.7942 18.4565 27.7942H20.013C20.441 27.7942 20.7912 27.444 20.7912 27.016V20.0119H26.2389C26.6669 20.0119 27.0171 19.6616 27.0171 19.2336V14.5642C27.0171 14.1362 26.6669 13.786 26.2389 13.786H24.6824Z" fill="#6FB07F"/>
</svg>
