<svg width="41" height="41" viewBox="0 0 41 41" fill="none" xmlns="http://www.w3.org/2000/svg">
<rect width="40.0236" height="40.0236" rx="20.0118" fill="#345995" fill-opacity="0.08"/>
<path d="M20.013 11.2563C15.1778 11.2563 11.2578 15.1763 11.2578 20.0115C11.2578 24.8461 15.1778 28.7667 20.013 28.7667C24.8482 28.7667 28.7681 24.8461 28.7681 20.0115C28.7681 15.1763 24.8482 11.2563 20.013 11.2563ZM18.8456 15.0502C18.8456 14.7584 19.1375 14.4666 19.4293 14.4666H20.5966C20.8885 14.4666 21.1803 14.7584 21.1803 15.0502V16.2176C21.1803 16.5094 20.8885 16.8013 20.5966 16.8007H19.4293C19.1375 16.8013 18.8456 16.5094 18.8456 16.2176V15.0502ZM21.764 21.1789L21.4722 18.5523L21.1803 25.5564H20.3048L20.013 21.7625L19.7211 25.5564H18.8456L18.5538 18.5523L18.2619 21.1789H17.3864L17.6783 17.9686C17.6783 17.6768 17.9701 17.385 18.2619 17.385H21.764C22.0558 17.385 22.3477 17.6768 22.3477 17.9686L22.6395 21.1789H21.764Z" fill="#345995"/>
</svg>
