<svg width="41" height="41" viewBox="0 0 41 41" fill="none" xmlns="http://www.w3.org/2000/svg">
<rect width="40.0236" height="40.0236" rx="20.0118" fill="#FF9800" fill-opacity="0.08"/>
<path d="M13.0087 13.8364H16.8999C17.1063 13.8364 17.3042 13.9184 17.4502 14.0644C17.5961 14.2103 17.6781 14.4083 17.6781 14.6147V25.51C17.6781 25.7164 17.5961 25.9143 17.4502 26.0603C17.3042 26.2062 17.1063 26.2882 16.8999 26.2882H13.0087C12.8023 26.2882 12.6044 26.2062 12.4584 26.0603C12.3125 25.9143 12.2305 25.7164 12.2305 25.51V14.6147C12.2305 14.4083 12.3125 14.2103 12.4584 14.0644C12.6044 13.9184 12.8023 13.8364 13.0087 13.8364ZM13.0087 22.397V23.9535H14.5652V22.397H13.0087ZM20.0128 16.1711H26.2387C26.6515 16.1711 27.0474 16.3351 27.3393 16.627C27.6312 16.9189 27.7952 17.3148 27.7952 17.7276V22.397C27.7952 22.8098 27.6312 23.2057 27.3393 23.4976C27.0474 23.7895 26.6515 23.9535 26.2387 23.9535H20.0128C19.6 23.9535 19.2041 23.7895 18.9122 23.4976C18.6203 23.2057 18.4564 22.8098 18.4564 22.397V17.7276C18.4564 17.3148 18.6203 16.9189 18.9122 16.627C19.2041 16.3351 19.6 16.1711 20.0128 16.1711ZM21.5693 24.7317H24.6822C24.8886 24.7317 25.0866 24.8137 25.2325 24.9597C25.3785 25.1056 25.4605 25.3036 25.4605 25.51C25.4605 25.7164 25.3785 25.9143 25.2325 26.0603C25.0866 26.2062 24.8886 26.2882 24.6822 26.2882H21.5693C21.3629 26.2882 21.165 26.2062 21.019 26.0603C20.8731 25.9143 20.7911 25.7164 20.7911 25.51C20.7911 25.3036 20.8731 25.1056 21.019 24.9597C21.165 24.8137 21.3629 24.7317 21.5693 24.7317Z" fill="#FF981F"/>
</svg>
