<svg width="41" height="41" viewBox="0 0 41 41" fill="none" xmlns="http://www.w3.org/2000/svg">
<rect width="40.0236" height="40.0236" rx="20.0118" fill="#F18F01" fill-opacity="0.08"/>
<g clip-path="url(#clip0_1_25957)">
<path d="M12.3317 16.2513C12.2277 16.0333 12.1938 15.7883 12.2347 15.5503C12.2757 15.3122 12.3896 15.0927 12.5605 14.922L13.661 13.8216C13.8316 13.6509 14.051 13.5373 14.289 13.4965C14.5269 13.4557 14.7716 13.4896 14.9894 13.5936L16.1373 12.4457C16.4292 12.1539 16.825 11.99 17.2377 11.99C17.6505 11.99 18.0463 12.1539 18.3382 12.4457L20.5398 14.6473C20.8316 14.9392 20.9955 15.335 20.9955 15.7478C20.9955 16.1605 20.8316 16.5563 20.5398 16.8482L19.4386 17.9486L19.3997 17.9097L16.6486 20.6615L16.6875 20.7005L15.5871 21.8009C15.4426 21.9455 15.2709 22.0602 15.0821 22.1384C14.8932 22.2167 14.6907 22.257 14.4863 22.257C14.2818 22.257 14.0794 22.2167 13.8905 22.1384C13.7016 22.0602 13.53 21.9455 13.3855 21.8009L11.1846 19.6C11.04 19.4555 10.9253 19.2839 10.8471 19.095C10.7688 18.9061 10.7285 18.7037 10.7285 18.4992C10.7285 18.2948 10.7688 18.0923 10.8471 17.9034C10.9253 17.7145 11.04 17.5429 11.1846 17.3984L12.331 16.2513H12.3317ZM17.7483 21.7612L20.5001 19.0101L23.2909 21.8009L20.5398 24.5527L17.749 21.762L17.7483 21.7612ZM21.6394 25.6524L24.3913 22.9013L25.7672 24.2772C26.1295 24.6426 26.3323 25.1366 26.3312 25.6511C26.3302 26.1656 26.1254 26.6588 25.7616 27.0227C25.3978 27.3865 24.9047 27.5915 24.3902 27.5927C23.8757 27.5939 23.3816 27.3912 23.0161 27.0291L21.6402 25.6531L21.6394 25.6524ZM23.8419 13.5461L27.1431 16.8482L24.1555 19.8358C23.6784 20.3129 22.7982 20.2078 22.1904 19.6L21.09 18.4988C20.4822 17.8918 20.3764 17.0116 20.8542 16.5338L23.8411 13.5461H23.8419ZM24.9415 12.4457L25.1773 12.2099C25.6544 11.7321 26.5345 11.8379 27.1424 12.4457L28.2428 13.5461C28.8506 14.1539 28.9564 15.0341 28.4786 15.512L28.2428 15.7478L24.9423 12.4457H24.9415ZM15.0369 24.5527L16.6867 22.9013C16.759 22.829 16.8448 22.7716 16.9392 22.7325C17.0336 22.6933 17.1349 22.6732 17.2371 22.6731C17.3393 22.6731 17.4405 22.6932 17.535 22.7323C17.6294 22.7714 17.7153 22.8287 17.7876 22.9009C17.8599 22.9732 17.9172 23.059 17.9564 23.1534C17.9955 23.2478 18.0157 23.349 18.0157 23.4512C18.0158 23.5535 17.9957 23.6547 17.9566 23.7491C17.9175 23.8436 17.8602 23.9294 17.788 24.0017L16.1373 25.6539C16.2832 25.7999 16.3652 25.9978 16.3652 26.2041C16.3652 26.4105 16.2832 26.6084 16.1373 26.7544L15.0369 27.8548C14.9646 27.9271 14.8788 27.9845 14.7843 28.0237C14.6898 28.0629 14.5886 28.083 14.4863 28.083C14.384 28.083 14.2827 28.0629 14.1883 28.0237C14.0938 27.9845 14.008 27.9271 13.9357 27.8548L12.8353 26.7544C12.6894 26.6084 12.6074 26.4105 12.6074 26.2041C12.6074 25.9978 12.6894 25.7999 12.8353 25.6539L13.9357 24.5535C14.008 24.4811 14.0938 24.4237 14.1883 24.3846C14.2827 24.3454 14.384 24.3253 14.4863 24.3253C14.5886 24.3253 14.6898 24.3454 14.7843 24.3846C14.8788 24.4237 14.9646 24.4811 15.0369 24.5535V24.5527Z" fill="#F18F01"/>
</g>
<defs>
<clipPath id="clip0_1_25957">
<rect width="18.6777" height="18.6777" fill="white" transform="translate(10.6738 10.6729)"/>
</clipPath>
</defs>
</svg>
