<svg width="41" height="41" viewBox="0 0 41 41" fill="none" xmlns="http://www.w3.org/2000/svg">
<rect width="40.0236" height="40.0236" rx="20.0118" fill="#6FB07F" fill-opacity="0.08"/>
<path d="M26.5297 23.6C26.8147 23.4698 27.0563 23.2605 27.2257 22.9969C27.3951 22.7333 27.4851 22.4266 27.4851 22.1132V20.9804C27.4852 20.4659 27.3153 19.9658 27.0019 19.5578C26.6884 19.1498 26.249 18.8567 25.7518 18.7242L23.7972 18.2031L22.3571 15.6097C22.1549 15.2456 21.859 14.9423 21.5 14.7311C21.1411 14.5199 20.7321 14.4086 20.3157 14.4087H17.1582C16.6681 14.4087 16.1904 14.5629 15.7928 14.8495C15.3952 15.1361 15.0979 15.5406 14.943 16.0056L14.1745 18.3105C13.7012 18.46 13.2879 18.7564 12.9945 19.1567C12.7011 19.5571 12.5429 20.0405 12.543 20.5368V22.1132C12.543 22.7735 12.9352 23.3422 13.4983 23.6C13.5731 24.1464 13.8389 24.6486 14.2486 25.0178C14.6583 25.387 15.1854 25.5992 15.7366 25.6169C16.2878 25.6345 16.8275 25.4565 17.26 25.1144C17.6925 24.7722 17.9899 24.288 18.0996 23.7475H21.9285C22.0381 24.288 22.3356 24.7722 22.7681 25.1144C23.2006 25.4565 23.7402 25.6345 24.2914 25.6169C24.8426 25.5992 25.3698 25.387 25.7795 25.0178C26.1892 24.6486 26.455 24.1464 26.5297 23.6ZM17.1582 15.3426H18.1463V18.1442H15.2139L15.8284 16.3007C15.9213 16.0216 16.0998 15.7788 16.3385 15.6069C16.5772 15.4349 16.864 15.3424 17.1582 15.3426ZM21.54 16.0635L22.6971 18.1442H19.0802V15.3426H20.3157C20.5655 15.3427 20.8108 15.4095 21.026 15.5363C21.2413 15.6631 21.4188 15.8451 21.54 16.0635ZM14.4107 23.2806C14.4107 23.0966 14.447 22.9145 14.5174 22.7445C14.5878 22.5746 14.6909 22.4201 14.821 22.2901C14.9511 22.16 15.1055 22.0568 15.2755 21.9864C15.4454 21.916 15.6276 21.8798 15.8116 21.8798C15.9955 21.8798 16.1777 21.916 16.3476 21.9864C16.5176 22.0568 16.672 22.16 16.8021 22.2901C16.9322 22.4201 17.0354 22.5746 17.1058 22.7445C17.1762 22.9145 17.2124 23.0966 17.2124 23.2806C17.2124 23.6521 17.0648 24.0084 16.8021 24.2711C16.5394 24.5338 16.1831 24.6814 15.8116 24.6814C15.44 24.6814 15.0837 24.5338 14.821 24.2711C14.5583 24.0084 14.4107 23.6521 14.4107 23.2806ZM22.8157 23.2806C22.8157 22.9091 22.9633 22.5528 23.226 22.2901C23.4887 22.0273 23.845 21.8798 24.2165 21.8798C24.588 21.8798 24.9443 22.0273 25.207 22.2901C25.4698 22.5528 25.6173 22.9091 25.6173 23.2806C25.6173 23.6521 25.4698 24.0084 25.207 24.2711C24.9443 24.5338 24.588 24.6814 24.2165 24.6814C23.845 24.6814 23.4887 24.5338 23.226 24.2711C22.9633 24.0084 22.8157 23.6521 22.8157 23.2806Z" fill="#6FB07F"/>
</svg>
