<svg width="20" height="21" viewBox="0 0 20 21" fill="none" xmlns="http://www.w3.org/2000/svg">
<path d="M9.59259 7.23352e-09C10.4535 -5.63596e-05 11.2817 0.329315 11.9075 0.920548C12.5332 1.51178 12.909 2.32005 12.9578 3.17956L12.963 3.37037H18.4074C18.6045 3.37043 18.7942 3.44529 18.9382 3.57982C19.0821 3.71436 19.1697 3.89853 19.1831 4.09513C19.1966 4.29174 19.1349 4.48611 19.0105 4.63898C18.8862 4.79184 18.7084 4.89181 18.5132 4.91867L18.4074 4.92593H17.5819L16.2545 18.4281C16.188 19.1013 15.8844 19.7289 15.3979 20.1989C14.9114 20.6688 14.2737 20.9506 13.5987 20.9938L13.4161 21H5.76904C5.09233 21 4.43768 20.7593 3.92208 20.321C3.40648 19.8828 3.06353 19.2754 2.95452 18.6076L2.93067 18.4271L1.60222 4.92593H0.777778C0.589828 4.92592 0.408238 4.85785 0.26659 4.73432C0.124943 4.61078 0.0328204 4.44013 0.00725923 4.25393L0 4.14815C7.92597e-06 3.9602 0.0680738 3.77861 0.19161 3.63696C0.315147 3.49531 0.485796 3.40319 0.672 3.37763L0.777778 3.37037H6.22222C6.22222 2.47649 6.57731 1.61923 7.20938 0.987158C7.84145 0.355091 8.69871 7.23352e-09 9.59259 7.23352e-09ZM16.0191 4.92593H3.16504L4.47896 18.2747C4.50806 18.5725 4.63931 18.8511 4.85045 19.0632C5.0616 19.2753 5.33962 19.4078 5.63733 19.4382L5.76904 19.4444H13.4161C14.0384 19.4444 14.5662 19.0037 14.6865 18.4053L14.7073 18.2747L16.0181 4.92593H16.0191ZM11.4074 7.77778C11.5954 7.77779 11.7769 7.84585 11.9186 7.96939C12.0602 8.09292 12.1524 8.26357 12.1779 8.44978L12.1852 8.55556V15.8148C12.1851 16.0119 12.1103 16.2016 11.9757 16.3456C11.8412 16.4896 11.657 16.5771 11.4604 16.5905C11.2638 16.604 11.0694 16.5423 10.9166 16.4179C10.7637 16.2936 10.6637 16.1158 10.6369 15.9206L10.6296 15.8148V8.55556C10.6296 8.34928 10.7116 8.15145 10.8574 8.00558C11.0033 7.85972 11.2011 7.77778 11.4074 7.77778ZM7.77778 7.77778C7.96573 7.77779 8.14732 7.84585 8.28896 7.96939C8.43061 8.09292 8.52273 8.26357 8.5483 8.44978L8.55556 8.55556V15.8148C8.5555 16.0119 8.48063 16.2016 8.3461 16.3456C8.21157 16.4896 8.02739 16.5771 7.83079 16.5905C7.63419 16.604 7.43982 16.5423 7.28695 16.4179C7.13408 16.2936 7.03412 16.1158 7.00726 15.9206L7 15.8148V8.55556C7 8.34928 7.08194 8.15145 7.22781 8.00558C7.37367 7.85972 7.5715 7.77778 7.77778 7.77778ZM9.59259 1.55556C9.13714 1.55557 8.69834 1.72684 8.3633 2.03537C8.02826 2.3439 7.82148 2.76713 7.784 3.22104L7.77778 3.37037H11.4074C11.4074 2.88905 11.2162 2.42745 10.8759 2.0871C10.5355 1.74676 10.0739 1.55556 9.59259 1.55556Z" fill="#F75555"/>
</svg>
