<svg width="23" height="23" viewBox="0 0 23 23" fill="none" xmlns="http://www.w3.org/2000/svg">
<path d="M10.3306 1.25977H8.25711C3.07346 1.25977 1 3.33377 1 8.51878V14.7408C1 19.9258 3.07346 21.9998 8.25711 21.9998H14.4775C19.6611 21.9998 21.7346 19.9258 21.7346 14.7408V12.6668" stroke="#345995" stroke-width="1.5" stroke-linecap="round" stroke-linejoin="round"/>
<path d="M15.5576 2.31827L7.38819 10.4898C7.07717 10.8009 6.76615 11.4128 6.70395 11.8587L6.25815 14.9801C6.09228 16.1104 6.89056 16.8985 8.02059 16.743L11.1411 16.2971C11.5766 16.2348 12.1882 15.9237 12.5096 15.6126L20.6791 7.44106C22.089 6.03073 22.7525 4.39227 20.6791 2.31827C18.6056 0.244263 16.9676 0.907945 15.5576 2.31827Z" stroke="#345995" stroke-width="1.5" stroke-miterlimit="10" stroke-linecap="round" stroke-linejoin="round"/>
<path d="M14.3789 3.49023C15.0735 5.96867 17.0122 7.90786 19.5004 8.61302" stroke="#345995" stroke-width="1.5" stroke-miterlimit="10" stroke-linecap="round" stroke-linejoin="round"/>
</svg>
