<svg width="18" height="19" viewBox="0 0 18 19" fill="none" xmlns="http://www.w3.org/2000/svg">
<g clip-path="url(#clip0_671_6883)">
<path d="M17.9918 9.66863C17.9918 8.93117 17.9306 8.39303 17.798 7.83496H9.17969V11.1634H14.2385C14.1365 11.9906 13.5858 13.2363 12.3618 14.0734L12.3447 14.1848L15.0696 16.2475L15.2584 16.2659C16.9923 14.7013 17.9918 12.3992 17.9918 9.66863Z" fill="#4285F4"/>
<path d="M9.17871 18.4384C11.6571 18.4384 13.7377 17.6411 15.2574 16.2659L12.3608 14.0734C11.5857 14.6015 10.5454 14.9703 9.17871 14.9703C6.75131 14.9703 4.69109 13.4057 3.95667 11.2432L3.84902 11.2521L1.01557 13.3947L0.978516 13.4954C2.48798 16.4252 5.58855 18.4384 9.17871 18.4384Z" fill="#34A853"/>
<path d="M3.95726 11.2431C3.76348 10.685 3.65133 10.087 3.65133 9.4692C3.65133 8.85129 3.76348 8.25338 3.94706 7.69531L3.94193 7.57645L1.07297 5.39941L0.979102 5.44304C0.356977 6.65886 0 8.02419 0 9.4692C0 10.9142 0.356977 12.2795 0.979102 13.4953L3.95726 11.2431Z" fill="#FBBC05"/>
<path d="M9.17871 3.96802C10.9024 3.96802 12.065 4.69551 12.728 5.30346L15.3186 2.83196C13.7276 1.38695 11.6571 0.5 9.17871 0.5C5.58855 0.5 2.48798 2.51305 0.978516 5.44292L3.94648 7.69519C4.69109 5.53265 6.75131 3.96802 9.17871 3.96802Z" fill="#EB4335"/>
</g>
<defs>
<clipPath id="clip0_671_6883">
<rect width="18" height="18" fill="white" transform="translate(0 0.5)"/>
</clipPath>
</defs>
</svg>
