<svg width="60" height="20" viewBox="0 0 60 20" fill="none" xmlns="http://www.w3.org/2000/svg">
<g clip-path="url(#clip0_1_40009)">
<path d="M58.1304 12.1881L59.7949 13.2978C59.2547 14.0935 57.9626 15.4587 55.7286 15.4587C52.9546 15.4587 50.8887 13.3124 50.8887 10.5821C50.8887 7.67666 52.9765 5.70557 55.4951 5.70557C58.0282 5.70557 59.2692 7.72037 59.6708 8.80811L59.8898 9.36299L53.3634 12.064C53.8598 13.0423 54.6337 13.5387 55.7286 13.5387C56.8237 13.5387 57.5829 12.9985 58.1304 12.1881ZM53.013 10.4289L57.3712 8.61838C57.1303 8.01252 56.415 7.58186 55.5607 7.58186C54.4731 7.58186 52.962 8.54549 53.013 10.4289Z" fill="#FF302F"/>
<path d="M47.7422 0.734004H49.8445V15.0133H47.7422V0.733887V0.734004Z" fill="#20B15A"/>
<path d="M44.4282 6.08508H46.4577V14.7578C46.4577 18.3567 44.3333 19.8387 41.822 19.8387C39.4568 19.8387 38.0333 18.2473 37.5003 16.9552L39.3619 16.1812C39.6976 16.977 40.508 17.9188 41.822 17.9188C43.4353 17.9188 44.4282 16.9186 44.4282 15.0498V14.349H44.3552C43.8734 14.933 42.9536 15.4586 41.7855 15.4586C39.3472 15.4586 37.1133 13.3342 37.1133 10.5967C37.1133 7.84441 39.3472 5.69824 41.7855 5.69824C42.9463 5.69824 43.8734 6.21656 44.3552 6.78598H44.4282V6.0852V6.08508ZM44.5741 10.5967C44.5741 8.87379 43.428 7.61812 41.968 7.61812C40.4933 7.61812 39.2523 8.87379 39.2523 10.5967C39.2523 12.2975 40.4933 13.5313 41.968 13.5313C43.4282 13.5387 44.5743 12.2975 44.5743 10.5967H44.5741Z" fill="#3686F7"/>
<path d="M25.5714 10.5601C25.5714 13.3707 23.3814 15.4366 20.6949 15.4366C18.0085 15.4366 15.8184 13.3634 15.8184 10.5601C15.8184 7.7349 18.0085 5.67627 20.6949 5.67627C23.3814 5.67627 25.5714 7.7349 25.5714 10.5601ZM23.4398 10.5601C23.4398 8.80811 22.1695 7.60342 20.6949 7.60342C19.2203 7.60342 17.95 8.80811 17.95 10.5601C17.95 12.2975 19.2203 13.5167 20.6949 13.5167C22.1696 13.5167 23.4398 12.2975 23.4398 10.5601Z" fill="#FF302F"/>
<path d="M36.2238 10.5821C36.2238 13.3927 34.0336 15.4586 31.3472 15.4586C28.6607 15.4586 26.4707 13.3926 26.4707 10.5821C26.4707 7.75693 28.6607 5.70557 31.3472 5.70557C34.0336 5.70557 36.2238 7.74967 36.2238 10.5821ZM34.0847 10.5821C34.0847 8.83014 32.8145 7.62545 31.3398 7.62545C29.8653 7.62545 28.595 8.83014 28.595 10.5821C28.595 12.3195 29.8653 13.5387 31.3398 13.5387C32.8218 13.5387 34.0847 12.3122 34.0847 10.5821Z" fill="#FFBA40"/>
<path d="M7.80422 13.3197C4.74539 13.3197 2.35102 10.8522 2.35102 7.7934C2.35102 4.73469 4.74539 2.26719 7.80422 2.26719C9.4541 2.26719 10.6586 2.91687 11.5492 3.74914L13.0166 2.28184C11.7756 1.09191 10.1184 0.186523 7.80422 0.186523C3.61394 0.186641 0.0878906 3.60324 0.0878906 7.7934C0.0878906 11.9838 3.61394 15.4003 7.80422 15.4003C10.0673 15.4003 11.7756 14.6557 13.1115 13.2686C14.4839 11.8961 14.9073 9.96887 14.9073 8.40664C14.9073 7.9175 14.8489 7.41383 14.7832 7.04152H7.80422V9.07098H12.7757C12.6296 10.3413 12.2282 11.21 11.6368 11.8012C10.9214 12.524 9.78996 13.3197 7.80422 13.3197Z" fill="#3686F7"/>
</g>
<defs>
<clipPath id="clip0_1_40009">
<rect width="60" height="19.6875" fill="white" transform="translate(0 0.15625)"/>
</clipPath>
</defs>
</svg>
