<svg width="397" height="745" viewBox="0 0 397 745" fill="none" xmlns="http://www.w3.org/2000/svg">
<path d="M95.6358 255.032C94.0626 256.936 91.7757 258.226 89.1858 258.488C88.5825 255.677 86.0862 253.569 83.0968 253.569C82.0388 253.569 81.0415 253.834 80.1708 254.3C79.1183 252.751 78.5039 250.88 78.5039 248.864C78.5039 248.001 78.6169 247.164 78.8263 246.37H90.6351L95.6358 255.03V255.032Z" fill="white"/>
<path d="M254.795 301.795C266.551 290.039 269.924 274.35 262.327 266.754C254.731 259.158 239.042 262.53 227.286 274.286C215.53 286.042 212.158 301.73 219.754 309.327C227.351 316.923 243.039 313.551 254.795 301.795Z" fill="#505050"/>
<path d="M147.327 375.327C154.924 367.731 151.551 352.042 139.795 340.286C128.039 328.53 112.351 325.158 104.754 332.754C97.1581 340.351 100.53 356.039 112.286 367.795C124.042 379.551 139.731 382.923 147.327 375.327Z" fill="#505050"/>
<path d="M252.753 588.333C283.166 557.92 283.166 508.61 252.753 478.196C222.339 447.783 173.029 447.783 142.615 478.196C112.202 508.61 112.202 557.92 142.615 588.333C173.029 618.747 222.339 618.747 252.753 588.333Z" fill="#505050"/>
<path d="M170.39 245.594C171.457 236.355 164.833 228 155.594 226.932C146.355 225.865 138 232.49 136.933 241.728C135.865 250.967 142.49 259.322 151.729 260.39C160.968 261.457 169.322 254.833 170.39 245.594Z" stroke="#F18F01" stroke-width="3.30625" stroke-miterlimit="10"/>
<path d="M317.535 582.675L315.885 600.603L310.606 658.03C309.534 669.64 299.813 678.556 288.159 678.57C284.101 678.578 279.618 678.515 274.86 678.335C258.731 677.729 239.51 675.795 223.417 670.734C223.417 670.734 177.791 680.115 124.825 675.759C123.943 675.688 123.045 675.611 122.158 675.533C101.604 673.671 85.326 657.344 83.2872 636.812L78.6722 590.381L77.8952 582.559C74.633 549.722 100.496 521.278 133.495 521.413L146.483 521.462L159.055 521.52L170.382 521.567L235.433 521.831L249.831 521.886L262.354 521.936C295.006 522.063 320.53 550.163 317.535 582.675Z" fill="#EFEFEF"/>
<path d="M277 633H120V745H277V633Z" fill="#131B20"/>
<path d="M276.729 690.026L124.082 681.049L127.107 676.28L146.479 521.465L161.236 521.52L155.602 576.288L242.608 576.889L235.428 521.831L249.827 521.889L274.858 678.338L276.729 690.026Z" fill="#131B20"/>
<path d="M316.1 598.135L310.604 658.033C309.532 669.643 299.811 678.559 288.157 678.573C284.098 678.581 279.616 678.518 274.858 678.339C258.729 677.733 239.508 675.798 223.415 670.737C223.415 670.737 177.789 680.119 124.823 675.763C123.941 675.691 123.043 675.614 122.156 675.537C101.602 673.674 85.324 657.347 83.2851 636.815L79.4141 597.903L136.943 597.176L134.937 625.301L163.743 615.699C175.317 611.842 187.589 610.541 199.715 611.889L263.914 619.019L262.338 597.462L316.092 598.135H316.1Z" fill="#FFBE92"/>
<path d="M203.812 613.772L187.146 643.961L168.221 630.918L134.971 624.766L170.885 610.648C174.588 608.942 178.682 608.27 182.735 608.703L202.267 610.797C203.697 610.951 204.509 612.51 203.812 613.77V613.772Z" fill="#F18F01"/>
<path d="M240.664 616.702L254.021 602.135C255.247 600.799 256.677 599.664 258.262 598.776L267.166 593.776C269.508 592.462 272.476 593.329 273.74 595.699C274.909 597.889 274.209 600.611 272.131 601.967L269.528 603.667L277.628 601.441C279.496 601.328 281.221 602.452 281.871 604.207C282.744 606.568 281.386 609.169 278.948 609.797L272.806 612.677L279.242 613.748C281.185 614.071 282.585 615.784 282.518 617.752C282.436 620.124 280.284 621.879 277.945 621.485L240.672 616.702H240.664Z" fill="#F18F01"/>
<path d="M223.417 670.737L168.222 630.921L134.939 625.301" stroke="#131B20" stroke-width="0.551042" stroke-miterlimit="10" stroke-linecap="round"/>
<path d="M269.526 603.664L263.048 606.158L253.49 616.762" stroke="#131B20" stroke-width="0.551042" stroke-miterlimit="10" stroke-linecap="round"/>
<path d="M272.8 612.674L266.783 613.476L260.658 618.705" stroke="#131B20" stroke-width="0.551042" stroke-miterlimit="10" stroke-linecap="round"/>
<path d="M182.379 439.14C182.379 439.14 173.419 443.744 173.441 447.935C173.46 452.01 176.502 451.861 176.502 451.861C176.502 451.861 170.702 455.432 173.297 461.199C175.893 466.965 218.136 463.218 226.065 459.325C233.995 455.432 224.478 450.098 224.478 450.098C224.478 450.098 232.983 442.168 220.874 438.565C208.765 434.961 182.381 439.14 182.381 439.14H182.379Z" fill="#E35300"/>
<path d="M178.416 521.738L184.899 467.505L216.432 466.488L219.609 522.356C221.122 531.519 195.768 554.9 178.419 521.738H178.416Z" fill="#FFBE92"/>
<path d="M186.125 441.319L184.615 484.002L208.922 485.531C212.809 485.766 216.529 482.396 216.419 478.503L217.383 446.832C217.218 440.919 216.851 436.781 210.996 437.64L186.122 441.324L186.125 441.319Z" fill="#FFBE92"/>
<path d="M185.557 468.044C184.344 472.497 180.057 475.208 175.985 474.098C171.91 472.987 169.59 468.48 170.805 464.025C172.018 459.572 176.305 456.861 180.377 457.971C184.449 459.082 186.772 463.589 185.557 468.044Z" fill="#FFBE92"/>
<path d="M196.9 451.678C196.969 452.926 196.289 453.979 195.382 454.028C194.476 454.078 193.682 453.108 193.616 451.86C193.547 450.612 194.228 449.559 195.134 449.51C196.041 449.46 196.834 450.43 196.9 451.678Z" fill="#131B20"/>
<path d="M212.175 451.77C212.145 453.018 211.385 454.012 210.475 453.99C209.566 453.968 208.855 452.938 208.886 451.687C208.916 450.439 209.676 449.444 210.586 449.466C211.495 449.488 212.206 450.519 212.175 451.77Z" fill="#131B20"/>
<path d="M215.232 447.314C214.976 448.259 213.447 447.793 211.521 447.27C209.592 446.744 207.991 446.358 208.25 445.413C208.506 444.468 210.281 444.126 212.209 444.653C214.138 445.179 215.494 446.369 215.235 447.317L215.232 447.314Z" fill="#131B20"/>
<path d="M189.594 447.366C189.822 448.319 191.363 447.9 193.305 447.432C195.247 446.966 196.859 446.627 196.631 445.674C196.402 444.721 194.641 444.327 192.696 444.795C190.754 445.263 189.362 446.412 189.591 447.366H189.594Z" fill="#131B20"/>
<path d="M202.035 453.246L205.452 461.096C205.821 461.947 205.262 462.892 204.325 462.997L202.132 463.247" stroke="#131B20" stroke-width="0.551042" stroke-miterlimit="10" stroke-linecap="round"/>
<path d="M174.754 463.504C174.93 463.622 178.518 465.84 179.628 466.526C179.779 466.62 179.766 466.835 179.611 466.92L175.479 469.284" stroke="#131B20" stroke-width="0.551042" stroke-miterlimit="10" stroke-linecap="round"/>
<path d="M216.424 466.487C217.637 470.939 221.924 473.65 225.996 472.54C230.071 471.43 232.391 466.922 231.176 462.467C229.964 458.015 225.676 455.303 221.604 456.414C217.529 457.524 215.209 462.032 216.424 466.487Z" fill="#FFBE92"/>
<path d="M227.227 461.947C227.05 462.066 223.463 464.284 222.353 464.97C222.201 465.063 222.215 465.278 222.369 465.364L226.502 467.728" stroke="#131B20" stroke-width="0.551042" stroke-miterlimit="10" stroke-linecap="round"/>
<path d="M187.883 478.939C187.883 478.939 197.705 492.338 213.875 479.799C213.875 479.799 212.013 492.266 201.846 492.903C191.682 493.539 187.883 478.939 187.883 478.939Z" fill="#131B20"/>
<path d="M179.852 440.697C179.852 440.388 182.364 466.218 182.364 465.907C182.364 465.595 185.461 464.978 185.461 464.978L185.976 438.542L181.353 436.754L179.852 440.694V440.697Z" fill="#E35300"/>
<path d="M216.957 434.652L216.75 463.566L219.538 463.67L223.952 439.76L216.957 434.652Z" fill="#E35300"/>
<path d="M179.11 440.785C179.11 440.785 183.012 432.852 200.058 431.37C217.724 429.833 224.125 440.077 224.125 440.077C224.125 440.077 218.959 446.099 210.938 444.174C202.918 442.248 200.312 442.509 190.657 445.276C186.924 446.345 179.107 440.785 179.107 440.785H179.11Z" fill="#F18F01"/>
<path d="M179.11 440.785C179.11 440.785 176.33 415.17 202.194 414.219C226.489 413.324 224.125 440.077 224.125 440.077L179.11 440.785Z" fill="#F18F01"/>
<path d="M195.012 468.212L208.782 467.926C208.782 467.926 206.774 474.668 201.897 474.381C197.02 474.095 195.012 468.212 195.012 468.212Z" fill="white"/>
<path d="M179.852 440.697C179.852 440.697 199.223 426.632 224.128 440.077" stroke="#131B20" stroke-width="0.551042" stroke-miterlimit="10" stroke-linecap="round"/>
<path d="M198.957 426.466C198.957 428.535 200.348 430.213 202.065 430.213C203.781 430.213 205.173 428.535 205.173 426.466C205.173 424.397 203.781 422.719 202.065 422.719C200.348 422.719 198.957 424.397 198.957 426.466Z" fill="#131B20"/>
<path d="M228.964 614.184V595.562H171.363V609.357" stroke="white" stroke-width="0.551042" stroke-miterlimit="10" stroke-linecap="round"/>
<path d="M169.484 522.171C173.507 546.059 191.038 549.621 201.357 549.497C210.97 549.381 229.204 542.964 228.961 522.383" stroke="white" stroke-width="0.551042" stroke-miterlimit="10" stroke-linecap="round"/>
<path d="M77.9961 585.982L137.131 585.273" stroke="white" stroke-width="0.551042" stroke-miterlimit="10" stroke-linecap="round"/>
<path d="M260.938 585.579L317.408 585.676" stroke="white" stroke-width="0.551042" stroke-miterlimit="10" stroke-linecap="round"/>
<path d="M374.817 638.66L369.816 630H354.607L347 643.173L354.607 656.345H369.816L377.423 643.173L374.817 638.66ZM362.278 649.669C358.834 649.669 356.043 646.876 356.043 643.434C356.043 641.048 357.384 638.974 359.352 637.927C360.222 637.461 361.22 637.197 362.278 637.197C365.267 637.197 367.766 639.304 368.367 642.115C368.463 642.542 368.51 642.98 368.51 643.434C368.51 646.876 365.722 649.669 362.275 649.669H362.278Z" fill="#D6D6D6"/>
<path d="M31.8166 270.66L26.8159 262H11.6071L4 275.173L11.6071 288.345H26.8159L34.423 275.173L31.8166 270.66ZM19.2776 281.669C15.8336 281.669 13.0426 278.876 13.0426 275.434C13.0426 273.048 14.3844 270.974 16.3516 269.927C17.2222 269.461 18.2196 269.197 19.2776 269.197C22.267 269.197 24.766 271.304 25.3666 274.115C25.4631 274.542 25.5099 274.98 25.5099 275.434C25.5099 278.876 22.7216 281.669 19.2749 281.669H19.2776Z" fill="#D6D6D6"/>
<path d="M16.8398 654.68C26.1402 654.68 33.6797 647.14 33.6797 637.84C33.6797 628.539 26.1402 621 16.8398 621C7.53945 621 0 628.539 0 637.84C0 647.14 7.53945 654.68 16.8398 654.68Z" fill="#F18F01"/>
<path d="M83.9121 345.316V354.566" stroke="white" stroke-width="0.551042" stroke-miterlimit="10" stroke-linecap="round"/>
<path d="M88.511 349.942H79.2617" stroke="white" stroke-width="0.551042" stroke-miterlimit="10" stroke-linecap="round"/>
<path d="M86.7467 511.398C88.734 511.398 90.345 509.787 90.345 507.799C90.345 505.812 88.734 504.201 86.7467 504.201C84.7595 504.201 83.1484 505.812 83.1484 507.799C83.1484 509.787 84.7595 511.398 86.7467 511.398Z" stroke="white" stroke-width="0.551042" stroke-miterlimit="10" stroke-linecap="round"/>
<path d="M388.45 502.9C391.458 502.9 393.9 500.458 393.9 497.45C393.9 494.441 391.458 492 388.45 492C385.441 492 383 494.441 383 497.45C383 500.458 385.441 502.9 388.45 502.9Z" stroke="#131B20" stroke-width="0.468385" stroke-miterlimit="10" stroke-linecap="round"/>
<path d="M281.652 476.561L287.458 481.355L293.266 476.561L299.074 481.355L304.882 476.561L310.689 481.355" stroke="white" stroke-width="0.468385" stroke-miterlimit="10" stroke-linecap="round"/>
<mask id="mask0_1_25540" style="mask-type:luminance" maskUnits="userSpaceOnUse" x="363" y="201" width="84" height="84">
<path d="M434.149 272.15C450.377 255.922 450.377 229.611 434.149 213.383C417.922 197.156 391.611 197.156 375.383 213.383C359.155 229.611 359.155 255.922 375.383 272.15C391.611 288.378 417.922 288.378 434.149 272.15Z" fill="white"/>
</mask>
<g mask="url(#mask0_1_25540)">
<path d="M365.025 208.318C365.653 208.318 366.163 207.808 366.163 207.18C366.163 206.551 365.653 206.042 365.025 206.042C364.396 206.042 363.887 206.551 363.887 207.18C363.887 207.808 364.396 208.318 365.025 208.318Z" fill="#EFEFEF"/>
<path d="M372.536 208.318C373.165 208.318 373.674 207.808 373.674 207.18C373.674 206.551 373.165 206.042 372.536 206.042C371.908 206.042 371.398 206.551 371.398 207.18C371.398 207.808 371.908 208.318 372.536 208.318Z" fill="#EFEFEF"/>
<path d="M365.025 215.674C365.653 215.674 366.163 215.165 366.163 214.536C366.163 213.908 365.653 213.398 365.025 213.398C364.396 213.398 363.887 213.908 363.887 214.536C363.887 215.165 364.396 215.674 365.025 215.674Z" fill="#EFEFEF"/>
<path d="M372.536 215.674C373.165 215.674 373.674 215.165 373.674 214.536C373.674 213.908 373.165 213.398 372.536 213.398C371.908 213.398 371.398 213.908 371.398 214.536C371.398 215.165 371.908 215.674 372.536 215.674Z" fill="#EFEFEF"/>
<path d="M380.38 208.318C381.009 208.318 381.518 207.808 381.518 207.18C381.518 206.551 381.009 206.042 380.38 206.042C379.752 206.042 379.242 206.551 379.242 207.18C379.242 207.808 379.752 208.318 380.38 208.318Z" fill="#EFEFEF"/>
<path d="M389.03 207.18C389.03 207.808 388.52 208.318 387.892 208.318C387.264 208.318 386.754 207.808 386.754 207.18C386.754 206.552 387.264 206.042 387.892 206.042C388.52 206.042 389.03 206.552 389.03 207.18Z" fill="#EFEFEF"/>
<path d="M380.38 215.674C381.009 215.674 381.518 215.165 381.518 214.536C381.518 213.908 381.009 213.398 380.38 213.398C379.752 213.398 379.242 213.908 379.242 214.536C379.242 215.165 379.752 215.674 380.38 215.674Z" fill="#EFEFEF"/>
<path d="M389.03 214.536C389.03 215.165 388.52 215.674 387.892 215.674C387.264 215.674 386.754 215.165 386.754 214.536C386.754 213.908 387.264 213.398 387.892 213.398C388.52 213.398 389.03 213.908 389.03 214.536Z" fill="#EFEFEF"/>
<path d="M396.877 207.18C396.877 207.808 396.368 208.318 395.739 208.318C395.111 208.318 394.602 207.808 394.602 207.18C394.602 206.552 395.111 206.042 395.739 206.042C396.368 206.042 396.877 206.552 396.877 207.18Z" fill="#EFEFEF"/>
<path d="M396.877 214.536C396.877 215.165 396.368 215.674 395.739 215.674C395.111 215.674 394.602 215.165 394.602 214.536C394.602 213.908 395.111 213.398 395.739 213.398C396.368 213.398 396.877 213.908 396.877 214.536Z" fill="#EFEFEF"/>
<path d="M366.163 221.976C366.163 222.604 365.653 223.114 365.025 223.114C364.396 223.114 363.887 222.604 363.887 221.976C363.887 221.348 364.396 220.838 365.025 220.838C365.653 220.838 366.163 221.348 366.163 221.976Z" fill="#EFEFEF"/>
<path d="M373.678 221.976C373.678 222.604 373.168 223.114 372.54 223.114C371.912 223.114 371.402 222.604 371.402 221.976C371.402 221.348 371.912 220.838 372.54 220.838C373.168 220.838 373.678 221.348 373.678 221.976Z" fill="#EFEFEF"/>
<path d="M366.163 229.332C366.163 229.96 365.653 230.47 365.025 230.47C364.396 230.47 363.887 229.96 363.887 229.332C363.887 228.704 364.396 228.194 365.025 228.194C365.653 228.194 366.163 228.704 366.163 229.332Z" fill="#EFEFEF"/>
<path d="M373.678 229.332C373.678 229.96 373.168 230.47 372.54 230.47C371.912 230.47 371.402 229.96 371.402 229.332C371.402 228.704 371.912 228.194 372.54 228.194C373.168 228.194 373.678 228.704 373.678 229.332Z" fill="#EFEFEF"/>
<path d="M381.518 221.976C381.518 222.604 381.008 223.114 380.38 223.114C379.752 223.114 379.242 222.604 379.242 221.976C379.242 221.348 379.752 220.838 380.38 220.838C381.008 220.838 381.518 221.348 381.518 221.976Z" fill="#EFEFEF"/>
<path d="M389.03 221.976C389.03 222.604 388.52 223.114 387.892 223.114C387.264 223.114 386.754 222.604 386.754 221.976C386.754 221.348 387.264 220.838 387.892 220.838C388.52 220.838 389.03 221.348 389.03 221.976Z" fill="#EFEFEF"/>
<path d="M381.518 229.332C381.518 229.96 381.008 230.47 380.38 230.47C379.752 230.47 379.242 229.96 379.242 229.332C379.242 228.704 379.752 228.194 380.38 228.194C381.008 228.194 381.518 228.704 381.518 229.332Z" fill="#EFEFEF"/>
<path d="M389.03 229.332C389.03 229.96 388.52 230.47 387.892 230.47C387.264 230.47 386.754 229.96 386.754 229.332C386.754 228.704 387.264 228.194 387.892 228.194C388.52 228.194 389.03 228.704 389.03 229.332Z" fill="#EFEFEF"/>
<path d="M396.877 221.976C396.877 222.604 396.368 223.114 395.739 223.114C395.111 223.114 394.602 222.604 394.602 221.976C394.602 221.348 395.111 220.838 395.739 220.838C396.368 220.838 396.877 221.348 396.877 221.976Z" fill="#EFEFEF"/>
<path d="M396.877 229.332C396.877 229.96 396.368 230.47 395.739 230.47C395.111 230.47 394.602 229.96 394.602 229.332C394.602 228.704 395.111 228.194 395.739 228.194C396.368 228.194 396.877 228.704 396.877 229.332Z" fill="#EFEFEF"/>
<path d="M366.163 237.021C366.163 237.649 365.653 238.159 365.025 238.159C364.396 238.159 363.887 237.649 363.887 237.021C363.887 236.393 364.396 235.883 365.025 235.883C365.653 235.883 366.163 236.393 366.163 237.021Z" fill="#EFEFEF"/>
<path d="M373.678 237.021C373.678 237.649 373.168 238.159 372.54 238.159C371.912 238.159 371.402 237.649 371.402 237.021C371.402 236.393 371.912 235.883 372.54 235.883C373.168 235.883 373.678 236.393 373.678 237.021Z" fill="#EFEFEF"/>
<path d="M366.163 244.377C366.163 245.005 365.653 245.515 365.025 245.515C364.396 245.515 363.887 245.005 363.887 244.377C363.887 243.749 364.396 243.239 365.025 243.239C365.653 243.239 366.163 243.749 366.163 244.377Z" fill="#EFEFEF"/>
<path d="M373.678 244.377C373.678 245.005 373.168 245.515 372.54 245.515C371.912 245.515 371.402 245.005 371.402 244.377C371.402 243.749 371.912 243.239 372.54 243.239C373.168 243.239 373.678 243.749 373.678 244.377Z" fill="#EFEFEF"/>
<path d="M381.518 237.021C381.518 237.649 381.008 238.159 380.38 238.159C379.752 238.159 379.242 237.649 379.242 237.021C379.242 236.393 379.752 235.883 380.38 235.883C381.008 235.883 381.518 236.393 381.518 237.021Z" fill="#EFEFEF"/>
<path d="M389.03 237.021C389.03 237.649 388.52 238.159 387.892 238.159C387.264 238.159 386.754 237.649 386.754 237.021C386.754 236.393 387.264 235.883 387.892 235.883C388.52 235.883 389.03 236.393 389.03 237.021Z" fill="#EFEFEF"/>
<path d="M381.518 244.377C381.518 245.005 381.008 245.515 380.38 245.515C379.752 245.515 379.242 245.005 379.242 244.377C379.242 243.749 379.752 243.239 380.38 243.239C381.008 243.239 381.518 243.749 381.518 244.377Z" fill="#EFEFEF"/>
<path d="M389.03 244.377C389.03 245.005 388.52 245.515 387.892 245.515C387.264 245.515 386.754 245.005 386.754 244.377C386.754 243.749 387.264 243.239 387.892 243.239C388.52 243.239 389.03 243.749 389.03 244.377Z" fill="#EFEFEF"/>
<path d="M396.877 237.021C396.877 237.649 396.368 238.159 395.739 238.159C395.111 238.159 394.602 237.649 394.602 237.021C394.602 236.393 395.111 235.883 395.739 235.883C396.368 235.883 396.877 236.393 396.877 237.021Z" fill="#EFEFEF"/>
<path d="M396.877 244.377C396.877 245.005 396.368 245.515 395.739 245.515C395.111 245.515 394.602 245.005 394.602 244.377C394.602 243.749 395.111 243.239 395.739 243.239C396.368 243.239 396.877 243.749 396.877 244.377Z" fill="#EFEFEF"/>
<path d="M365.025 252.955C365.653 252.955 366.163 252.445 366.163 251.817C366.163 251.188 365.653 250.679 365.025 250.679C364.396 250.679 363.887 251.188 363.887 251.817C363.887 252.445 364.396 252.955 365.025 252.955Z" fill="#EFEFEF"/>
<path d="M372.536 252.955C373.165 252.955 373.674 252.445 373.674 251.817C373.674 251.188 373.165 250.679 372.536 250.679C371.908 250.679 371.398 251.188 371.398 251.817C371.398 252.445 371.908 252.955 372.536 252.955Z" fill="#EFEFEF"/>
<path d="M365.025 260.311C365.653 260.311 366.163 259.802 366.163 259.173C366.163 258.545 365.653 258.035 365.025 258.035C364.396 258.035 363.887 258.545 363.887 259.173C363.887 259.802 364.396 260.311 365.025 260.311Z" fill="#EFEFEF"/>
<path d="M372.536 260.311C373.165 260.311 373.674 259.802 373.674 259.173C373.674 258.545 373.165 258.035 372.536 258.035C371.908 258.035 371.398 258.545 371.398 259.173C371.398 259.802 371.908 260.311 372.536 260.311Z" fill="#EFEFEF"/>
<path d="M380.38 252.955C381.009 252.955 381.518 252.445 381.518 251.817C381.518 251.188 381.009 250.679 380.38 250.679C379.752 250.679 379.242 251.188 379.242 251.817C379.242 252.445 379.752 252.955 380.38 252.955Z" fill="#EFEFEF"/>
<path d="M389.03 251.817C389.03 252.445 388.52 252.955 387.892 252.955C387.264 252.955 386.754 252.445 386.754 251.817C386.754 251.188 387.264 250.679 387.892 250.679C388.52 250.679 389.03 251.188 389.03 251.817Z" fill="#EFEFEF"/>
<path d="M380.38 260.311C381.009 260.311 381.518 259.802 381.518 259.173C381.518 258.545 381.009 258.035 380.38 258.035C379.752 258.035 379.242 258.545 379.242 259.173C379.242 259.802 379.752 260.311 380.38 260.311Z" fill="#EFEFEF"/>
<path d="M389.03 259.173C389.03 259.801 388.52 260.311 387.892 260.311C387.264 260.311 386.754 259.801 386.754 259.173C386.754 258.545 387.264 258.035 387.892 258.035C388.52 258.035 389.03 258.545 389.03 259.173Z" fill="#EFEFEF"/>
<path d="M396.877 251.817C396.877 252.445 396.368 252.955 395.739 252.955C395.111 252.955 394.602 252.445 394.602 251.817C394.602 251.188 395.111 250.679 395.739 250.679C396.368 250.679 396.877 251.188 396.877 251.817Z" fill="#EFEFEF"/>
<path d="M396.877 259.173C396.877 259.801 396.368 260.311 395.739 260.311C395.111 260.311 394.602 259.801 394.602 259.173C394.602 258.545 395.111 258.035 395.739 258.035C396.368 258.035 396.877 258.545 396.877 259.173Z" fill="#EFEFEF"/>
<path d="M365.025 267.75C365.653 267.75 366.163 267.241 366.163 266.613C366.163 265.984 365.653 265.475 365.025 265.475C364.396 265.475 363.887 265.984 363.887 266.613C363.887 267.241 364.396 267.75 365.025 267.75Z" fill="#EFEFEF"/>
<path d="M372.536 267.75C373.165 267.75 373.674 267.241 373.674 266.613C373.674 265.984 373.165 265.475 372.536 265.475C371.908 265.475 371.398 265.984 371.398 266.613C371.398 267.241 371.908 267.75 372.536 267.75Z" fill="#EFEFEF"/>
<path d="M365.025 275.109C365.653 275.109 366.163 274.599 366.163 273.971C366.163 273.342 365.653 272.833 365.025 272.833C364.396 272.833 363.887 273.342 363.887 273.971C363.887 274.599 364.396 275.109 365.025 275.109Z" fill="#EFEFEF"/>
<path d="M372.536 275.109C373.165 275.109 373.674 274.599 373.674 273.971C373.674 273.342 373.165 272.833 372.536 272.833C371.908 272.833 371.398 273.342 371.398 273.971C371.398 274.599 371.908 275.109 372.536 275.109Z" fill="#EFEFEF"/>
<path d="M380.38 267.75C381.009 267.75 381.518 267.241 381.518 266.613C381.518 265.984 381.009 265.475 380.38 265.475C379.752 265.475 379.242 265.984 379.242 266.613C379.242 267.241 379.752 267.75 380.38 267.75Z" fill="#EFEFEF"/>
<path d="M389.03 266.613C389.03 267.241 388.52 267.75 387.892 267.75C387.264 267.75 386.754 267.241 386.754 266.613C386.754 265.984 387.264 265.475 387.892 265.475C388.52 265.475 389.03 265.984 389.03 266.613Z" fill="#EFEFEF"/>
<path d="M380.38 275.109C381.009 275.109 381.518 274.599 381.518 273.971C381.518 273.342 381.009 272.833 380.38 272.833C379.752 272.833 379.242 273.342 379.242 273.971C379.242 274.599 379.752 275.109 380.38 275.109Z" fill="#EFEFEF"/>
<path d="M389.03 273.971C389.03 274.599 388.52 275.109 387.892 275.109C387.264 275.109 386.754 274.599 386.754 273.971C386.754 273.343 387.264 272.833 387.892 272.833C388.52 272.833 389.03 273.343 389.03 273.971Z" fill="#EFEFEF"/>
<path d="M396.877 266.613C396.877 267.241 396.368 267.75 395.739 267.75C395.111 267.75 394.602 267.241 394.602 266.613C394.602 265.984 395.111 265.475 395.739 265.475C396.368 265.475 396.877 265.984 396.877 266.613Z" fill="#EFEFEF"/>
<path d="M396.877 273.971C396.877 274.599 396.368 275.109 395.739 275.109C395.111 275.109 394.602 274.599 394.602 273.971C394.602 273.343 395.111 272.833 395.739 272.833C396.368 272.833 396.877 273.343 396.877 273.971Z" fill="#EFEFEF"/>
</g>
<path d="M96.0844 410.755L90.5327 417.439L90.5189 417.428C88.8493 416.04 86.3696 416.271 84.981 417.941C83.5923 419.611 83.8183 422.093 85.4907 423.482L85.5017 423.493L44.8293 472.453C40.4899 477.671 32.7422 478.387 27.5211 474.051C22.3 469.714 21.5836 461.964 25.9203 456.742L66.5982 407.78C68.2679 409.069 70.6704 408.813 72.0287 407.179C73.3871 405.545 73.1942 403.14 71.6182 401.735L77.1755 395.048L84.8873 401.456L88.8438 404.746L96.0817 410.758L96.0844 410.755Z" fill="#F18F01"/>
<path d="M127.795 357.944L125.34 360.895L117.352 370.491L88.8471 404.744L84.8906 401.451L111.481 369.496L121.375 357.608L123.833 354.651L127.795 357.944Z" fill="#D6D6D6"/>
<path d="M139.093 344.236L132.546 357.343L127.857 362.985L125.341 360.894L121.377 357.607L119.057 355.676L123.746 350.033L135.728 341.442L139.093 344.236Z" fill="#D6D6D6"/>
<mask id="mask1_1_25540" style="mask-type:luminance" maskUnits="userSpaceOnUse" x="23" y="395" width="74" height="82">
<path d="M84.8997 418.045C83.5111 419.715 83.7398 422.197 85.4095 423.583L85.4232 423.594L44.7481 472.554C40.4114 477.775 32.661 478.492 27.4371 474.152C22.216 469.815 21.4996 462.065 25.8363 456.844L66.517 407.881C68.1866 409.171 70.5892 408.917 71.9475 407.28C73.3058 405.644 73.113 403.239 71.5397 401.833L77.0942 395.146L96.0032 410.857L90.4487 417.541L90.435 417.53C88.7653 416.141 86.2856 416.37 84.897 418.042L84.8997 418.045Z" fill="white"/>
</mask>
<g mask="url(#mask1_1_25540)">
<path d="M77.6543 442.482L82.2279 445.772C82.283 445.813 82.3602 445.761 82.3437 445.695L81.3518 440.262" stroke="#131B20" stroke-width="0.551042" stroke-miterlimit="10" stroke-linecap="round"/>
<path d="M34.1973 466.32C32.6269 465.017 32.4119 462.689 33.7179 461.119L66.6647 421.46C67.9679 419.89 70.2961 419.675 71.8665 420.981C73.437 422.284 73.6519 424.612 72.3487 426.182L39.4019 465.841C38.0987 467.411 35.7705 467.626 34.2001 466.32H34.1973Z" stroke="#131B20" stroke-width="0.551042" stroke-miterlimit="10" stroke-linecap="round"/>
<path d="M43.6314 474.156C42.0609 472.853 41.846 470.525 43.1492 468.954L76.0988 429.296C77.402 427.725 79.7301 427.511 81.3006 428.817C82.8683 430.12 83.086 432.448 81.78 434.018L48.8332 473.677C47.53 475.247 45.2019 475.462 43.6314 474.156Z" stroke="#131B20" stroke-width="0.551042" stroke-miterlimit="10" stroke-linecap="round"/>
<path d="M72.7715 395.129L98.0974 416.168" stroke="#131B20" stroke-width="0.551042" stroke-miterlimit="10" stroke-linecap="round"/>
</g>
<path d="M139.088 344.235L132.542 357.345L127.853 362.987L125.337 360.896L117.35 370.492C115.394 370.396 113.429 370.071 111.479 369.498L121.372 357.609L119.053 355.678L123.742 350.035L135.724 341.444L139.088 344.238V344.235Z" fill="white"/>
<path d="M420.007 281.083L362.203 234.41L370.458 224.078L428.262 270.751L420.007 281.083Z" fill="#D6D6D6"/>
<path d="M372.175 230.707C371.72 231.509 371.194 232.283 370.596 233.024C370.183 233.537 369.742 234.022 369.282 234.474C368.183 235.562 366.965 236.474 365.667 237.204C359.705 240.565 352.048 240.166 346.397 235.6C340.876 231.145 338.837 223.984 340.639 217.562L352.009 226.745L356.266 221.472L360.551 216.162L349.183 206.985C355.076 203.877 362.504 204.367 368.017 208.82C370.828 211.087 372.734 214.057 373.693 217.276C374.608 220.348 374.657 223.646 373.8 226.773C373.428 228.126 372.888 229.448 372.175 230.702V230.707Z" fill="#D6D6D6"/>
<path d="M414.089 271.655L374.113 238.975L370.185 235.768C368.92 234.735 368.777 232.853 369.87 231.641C370.887 230.514 372.609 230.379 373.788 231.335L378.02 234.76L418.635 267.503" stroke="#131B20" stroke-width="0.551042" stroke-miterlimit="10" stroke-linecap="round"/>
</svg>
