<svg width="21" height="21" viewBox="0 0 21 21" fill="none" xmlns="http://www.w3.org/2000/svg">
<mask id="mask0_1_22959" style="mask-type:luminance" maskUnits="userSpaceOnUse" x="0" y="0" width="21" height="21">
<path fill-rule="evenodd" clip-rule="evenodd" d="M0 0H20.9992V21H0V0Z" fill="white"/>
</mask>
<g mask="url(#mask0_1_22959)">
<path fill-rule="evenodd" clip-rule="evenodd" d="M4.98767 18.246C5.55434 18.246 6.08878 18.4609 6.65448 18.6886C10.12 20.2909 14.2186 19.562 16.8888 16.8928C20.412 13.3677 20.412 7.6335 16.8888 4.11035C15.1829 2.40446 12.9143 1.46554 10.4991 1.46554C8.08289 1.46554 5.81326 2.40544 4.10835 4.11133C1.43716 6.78056 0.710249 10.8792 2.29792 14.3115C2.52654 14.8772 2.74735 15.4282 2.74735 16.0008C2.74735 16.5723 2.55097 17.1478 2.37803 17.6558C2.23539 18.074 2.01946 18.7052 2.1582 18.8439C2.29401 18.9846 2.92908 18.7628 3.34822 18.6192C3.85139 18.4472 4.42197 18.2499 4.98767 18.246ZM10.4781 21.0002C8.98516 21.0002 7.48249 20.6846 6.07655 20.0339C5.66229 19.8678 5.27441 19.7115 4.99596 19.7115C4.6755 19.7135 4.24463 19.862 3.82842 20.0056C2.97449 20.2987 1.91149 20.6641 1.12498 19.8805C0.341409 19.096 0.702909 18.0359 0.994063 17.183C1.13769 16.7628 1.28522 16.329 1.28522 16.0008C1.28522 15.7311 1.15527 15.3872 0.955959 14.8918C-0.874011 10.9398 -0.0279066 6.17676 3.07611 3.0747C5.05751 1.09232 7.69451 0 10.5015 0C13.3085 0 15.9465 1.09134 17.9279 3.07372C22.0236 7.16942 22.0236 13.8327 17.9279 17.9284C15.9201 19.9372 13.2167 21.0002 10.4781 21.0002Z" fill="#345995"/>
</g>
<path fill-rule="evenodd" clip-rule="evenodd" d="M14.3618 11.8837C13.8225 11.8837 13.3809 11.447 13.3809 10.9067C13.3809 10.3664 13.8137 9.92969 14.353 9.92969H14.3618C14.9011 9.92969 15.3388 10.3664 15.3388 10.9067C15.3388 11.447 14.9011 11.8837 14.3618 11.8837Z" fill="#345995"/>
<path fill-rule="evenodd" clip-rule="evenodd" d="M10.438 11.8837C9.89865 11.8837 9.45703 11.447 9.45703 10.9067C9.45703 10.3664 9.88888 9.92969 10.4292 9.92969H10.438C10.9773 9.92969 11.415 10.3664 11.415 10.9067C11.415 11.447 10.9773 11.8837 10.438 11.8837Z" fill="#345995"/>
<path fill-rule="evenodd" clip-rule="evenodd" d="M6.52195 11.8837C5.98263 11.8837 5.54102 11.447 5.54102 10.9067C5.54102 10.3664 5.97384 9.92969 6.51316 9.92969H6.52195C7.06127 9.92969 7.49898 10.3664 7.49898 10.9067C7.49898 11.447 7.06127 11.8837 6.52195 11.8837Z" fill="#345995"/>
</svg>
