<svg width="28" height="33" viewBox="0 0 28 33" fill="none" xmlns="http://www.w3.org/2000/svg">
<g clip-path="url(#clip0_1_39949)">
<path d="M23.0114 2.74077C21.5349 1.05791 18.866 0.336426 15.4516 0.336426H5.54224C5.20442 0.336438 4.87769 0.45696 4.62078 0.676322C4.36388 0.895684 4.19365 1.1995 4.14071 1.53314L0.0146135 27.7018C-0.0673997 28.2179 0.332176 28.6851 0.855196 28.6851H6.97292L8.50934 18.9399L8.46166 19.245C8.57112 18.5562 9.16026 18.0481 9.8579 18.0481H12.765C18.4761 18.0481 22.9479 15.7284 24.2542 9.01807C24.293 8.8196 24.3266 8.62644 24.3556 8.43772C24.1907 8.35041 24.1907 8.35041 24.3556 8.43772C24.7446 5.95751 24.3529 4.26925 23.0114 2.74077Z" fill="#27346A"/>
<path d="M10.8502 7.54427C11.0175 7.46463 11.2004 7.42336 11.3856 7.42347H19.1544C20.0744 7.42347 20.9324 7.48334 21.7165 7.60954C21.936 7.64452 22.1542 7.68629 22.3711 7.73478C22.6784 7.8026 22.9822 7.8856 23.2813 7.98347C23.6667 8.11221 24.0257 8.26215 24.3557 8.43772C24.7446 5.95656 24.3529 4.26925 23.0114 2.74077C21.5341 1.05791 18.866 0.336426 15.4516 0.336426H5.5414C4.84365 0.336426 4.25006 0.844399 4.14071 1.53314L0.0146141 27.7009C-0.0673991 28.2177 0.332177 28.6844 0.854349 28.6844H6.97292L10.1605 8.47036C10.1919 8.27167 10.271 8.08357 10.3912 7.92225C10.5113 7.76093 10.6688 7.63121 10.8502 7.54427Z" fill="#27346A"/>
<path d="M24.2542 9.01809C22.9479 15.7275 18.4761 18.0481 12.765 18.0481H9.85701C9.15937 18.0481 8.57013 18.5562 8.46173 19.2451L6.55031 31.3621C6.47889 31.8137 6.82814 32.223 7.28504 32.223H12.4421C12.7375 32.2229 13.0232 32.1174 13.2478 31.9255C13.4724 31.7336 13.6212 31.4679 13.6673 31.1761L13.7176 30.9133L14.6895 24.7532L14.7522 24.4127C14.7983 24.121 14.9471 23.8552 15.1716 23.6633C15.3962 23.4714 15.6819 23.366 15.9773 23.3659H16.7491C21.7448 23.3659 25.6565 21.3363 26.7996 15.4665C27.2768 13.0135 27.0299 10.9655 25.7677 9.52702C25.3849 9.09131 24.9094 8.73147 24.3556 8.43774C24.3256 8.62741 24.293 8.81962 24.2542 9.01809Z" fill="#2790C3"/>
<path d="M22.9889 7.89264C22.7852 7.83317 22.5796 7.78051 22.3724 7.73476C22.1555 7.68706 21.9372 7.64558 21.7179 7.61036C20.9329 7.48332 20.0755 7.42334 19.1547 7.42334H11.3869C11.2015 7.42292 11.0184 7.46455 10.8514 7.54509C10.6699 7.63177 10.5121 7.76141 10.3919 7.92278C10.2718 8.08415 10.1927 8.27238 10.1616 8.47118L8.51057 18.9398L8.46289 19.245C8.5715 18.5562 9.16064 18.0481 9.85839 18.0481H12.7664C18.4774 18.0481 22.9491 15.7284 24.2554 9.01805C24.2943 8.81958 24.3269 8.62726 24.3569 8.4377C24.0261 8.26308 23.6681 8.11219 23.2825 7.9843C23.1852 7.95204 23.0873 7.92149 22.989 7.89264" fill="#1F264F"/>
</g>
<defs>
<clipPath id="clip0_1_39949">
<rect width="27.1258" height="32" fill="white" transform="translate(0 0.25)"/>
</clipPath>
</defs>
</svg>
