<svg width="24" height="30" viewBox="0 0 24 30" fill="none" xmlns="http://www.w3.org/2000/svg">
<g clip-path="url(#clip0_1_39402)">
<path d="M4.5 0C2.43164 0 0.75 1.68164 0.75 3.75V26.25C0.75 28.3184 2.43164 30 4.5 30H19.5C21.5684 30 23.25 28.3184 23.25 26.25V9.375H15.75C14.7129 9.375 13.875 8.53711 13.875 7.5V0H4.5ZM15.75 0V7.5H23.25L15.75 0ZM4.5 13.125H5.90625C7.7168 13.125 9.1875 14.5957 9.1875 16.4062C9.1875 18.2168 7.7168 19.6875 5.90625 19.6875H5.4375V21.5625C5.4375 22.0781 5.01562 22.5 4.5 22.5C3.98438 22.5 3.5625 22.0781 3.5625 21.5625V18.75V14.0625C3.5625 13.5469 3.98438 13.125 4.5 13.125ZM5.90625 17.8125C6.68555 17.8125 7.3125 17.1855 7.3125 16.4062C7.3125 15.627 6.68555 15 5.90625 15H5.4375V17.8125H5.90625ZM10.125 14.0625C10.125 13.5469 10.5469 13.125 11.0625 13.125H12.4688C14.0215 13.125 15.2812 14.3848 15.2812 15.9375V19.6875C15.2812 21.2402 14.0215 22.5 12.4688 22.5H11.0625C10.5469 22.5 10.125 22.0781 10.125 21.5625V14.0625ZM12 20.625H12.4688C12.9844 20.625 13.4062 20.2031 13.4062 19.6875V15.9375C13.4062 15.4219 12.9844 15 12.4688 15H12V20.625ZM17.625 13.125H20.4375C20.9531 13.125 21.375 13.5469 21.375 14.0625C21.375 14.5781 20.9531 15 20.4375 15H18.5625V16.875H20.4375C20.9531 16.875 21.375 17.2969 21.375 17.8125C21.375 18.3281 20.9531 18.75 20.4375 18.75H18.5625V21.5625C18.5625 22.0781 18.1406 22.5 17.625 22.5C17.1094 22.5 16.6875 22.0781 16.6875 21.5625V17.8125V14.0625C16.6875 13.5469 17.1094 13.125 17.625 13.125Z" fill="#3A3541"/>
</g>
<defs>
<clipPath id="clip0_1_39402">
<rect width="22.5" height="30" fill="white" transform="translate(0.75)"/>
</clipPath>
</defs>
</svg>
