<svg xmlns="http://www.w3.org/2000/svg" width="30" height="30" viewBox="0 0 30 30" fill="none">
  <path fill-rule="evenodd" clip-rule="evenodd" d="M19.9373 3.00049H9.12234C5.35734 3.00049 2.99609 5.66799 2.99609 9.44299V19.6255C2.99609 23.4005 5.34734 26.068 9.12234 26.068H19.9311C23.7123 26.068 26.0623 23.4005 26.0623 19.6255V9.44299C26.0673 5.66799 23.7161 3.00049 19.9373 3.00049Z" stroke="#9E9E9E" stroke-width="1.5" stroke-linecap="round" stroke-linejoin="round"/>
  <path fill-rule="evenodd" clip-rule="evenodd" d="M12.9392 10.5433C12.9392 11.8183 11.9067 12.8508 10.6317 12.8508C9.35797 12.8508 8.32422 11.8183 8.32422 10.5433C8.32422 9.26834 9.35797 8.23584 10.6317 8.23584C11.9055 8.23709 12.938 9.26959 12.9392 10.5433Z" stroke="#9E9E9E" stroke-width="1.5" stroke-linecap="round" stroke-linejoin="round"/>
  <path d="M26.0673 18.2508C24.9136 17.0633 22.6948 14.6646 20.2823 14.6646C17.8686 14.6646 16.4773 19.9558 14.1561 19.9558C11.8348 19.9558 9.72609 17.5633 7.86609 19.0971C6.00609 20.6296 4.24609 23.7633 4.24609 23.7633" stroke="#9E9E9E" stroke-width="1.5" stroke-linecap="round" stroke-linejoin="round"/>
</svg>