<svg width="50" height="50" viewBox="0 0 50 50" fill="none" xmlns="http://www.w3.org/2000/svg">
<rect width="50" height="50" rx="25" fill="#4CAF50" fill-opacity="0.08"/>
<path d="M32.0793 18.126L30.0182 16.0648C29.2599 15.3065 28.0252 15.3065 27.2668 16.0648L24.5155 18.8162L26.5766 20.8773L28.6377 18.8162L32.0793 22.2579C32.6257 21.7091 32.9324 20.9663 32.9324 20.1919C32.9324 19.4176 32.6257 18.6747 32.0793 18.126ZM18.6724 26.7204C19.246 27.294 20.1696 27.294 20.7335 26.7204L23.1349 24.319L21.0738 22.2482L18.6724 24.6496C18.0988 25.2232 18.0988 26.1468 18.6724 26.7204Z" fill="#6FB07F"/>
<path d="M27.9563 20.8774L27.266 21.5677L26.5757 22.2579L23.4841 19.1663C22.9105 18.5829 21.9868 18.5829 21.423 19.1565C21.2866 19.2913 21.1783 19.4518 21.1044 19.6287C21.0305 19.8056 20.9924 19.9954 20.9924 20.1871C20.9924 20.3788 21.0305 20.5686 21.1044 20.7455C21.1783 20.9224 21.2866 21.0829 21.423 21.2177L24.5146 24.3093L23.8243 24.9996L17.641 31.1829C16.8827 31.9413 16.8827 33.176 17.641 33.9343C18.3993 34.6926 19.6341 34.6926 20.3924 33.9343L29.3271 24.9996C29.4171 25.0896 29.524 25.161 29.6416 25.2097C29.7592 25.2584 29.8852 25.2835 30.0125 25.2835C30.1398 25.2835 30.2659 25.2584 30.3835 25.2097C30.5011 25.161 30.6079 25.0896 30.698 24.9996C30.788 24.9096 30.8594 24.8027 30.9081 24.6851C30.9568 24.5675 30.9819 24.4415 30.9819 24.3142C30.9819 24.1869 30.9568 24.0608 30.9081 23.9432C30.8594 23.8256 30.788 23.7188 30.698 23.6288L27.9563 20.8774Z" fill="#6FB07F"/>
</svg>
