<svg width="388" height="537" viewBox="0 0 388 537" fill="none" xmlns="http://www.w3.org/2000/svg">
<path d="M254.797 300.892C310.824 244.866 321.913 165.118 279.565 122.771C237.218 80.4237 157.471 91.5127 101.444 147.539C45.4182 203.565 34.3292 283.313 76.6765 325.66C119.024 368.007 198.771 356.918 254.797 300.892Z" fill="#505050"/>
<path d="M369.835 350.291C379.574 340.553 375.251 320.441 360.18 305.371C345.109 290.3 324.998 285.977 315.26 295.715C305.521 305.453 309.844 325.565 324.915 340.636C339.986 355.706 360.097 360.029 369.835 350.291Z" fill="#505050"/>
<path d="M155.461 485.254C171.849 471.629 177.998 451.998 169.194 441.408C160.389 430.818 139.966 433.279 123.577 446.905C107.188 460.53 101.04 480.161 109.844 490.751C118.649 501.341 139.072 498.88 155.461 485.254Z" fill="#505050"/>
<mask id="mask0_1_25041" style="mask-type:luminance" maskUnits="userSpaceOnUse" x="258" y="192" width="74" height="74">
<path d="M320.538 254.818C334.756 240.599 334.756 217.547 320.538 203.329C306.32 189.11 283.267 189.11 269.049 203.329C254.831 217.547 254.831 240.599 269.049 254.818C283.267 269.036 306.32 269.036 320.538 254.818Z" fill="white"/>
</mask>
<g mask="url(#mask0_1_25041)">
<path d="M259.935 193.972C259.935 194.523 259.49 194.972 258.935 194.972C258.381 194.972 257.936 194.527 257.936 193.972C257.936 193.418 258.381 192.973 258.935 192.973C259.49 192.973 259.935 193.418 259.935 193.972Z" fill="#EFEFEF"/>
<path d="M266.517 193.972C266.517 194.523 266.072 194.972 265.517 194.972C264.963 194.972 264.518 194.527 264.518 193.972C264.518 193.418 264.963 192.973 265.517 192.973C266.072 192.973 266.517 193.418 266.517 193.972Z" fill="#EFEFEF"/>
<path d="M259.935 200.419C259.935 200.97 259.49 201.418 258.935 201.418C258.381 201.418 257.936 200.973 257.936 200.419C257.936 199.864 258.381 199.419 258.935 199.419C259.49 199.419 259.935 199.864 259.935 200.419Z" fill="#EFEFEF"/>
<path d="M266.517 200.419C266.517 200.97 266.072 201.418 265.517 201.418C264.963 201.418 264.518 200.973 264.518 200.419C264.518 199.864 264.963 199.419 265.517 199.419C266.072 199.419 266.517 199.864 266.517 200.419Z" fill="#EFEFEF"/>
<path d="M273.394 193.972C273.394 194.523 272.949 194.972 272.394 194.972C271.84 194.972 271.395 194.527 271.395 193.972C271.395 193.418 271.84 192.973 272.394 192.973C272.949 192.973 273.394 193.418 273.394 193.972Z" fill="#EFEFEF"/>
<path d="M279.976 193.972C279.976 194.523 279.531 194.972 278.976 194.972C278.422 194.972 277.977 194.527 277.977 193.972C277.977 193.418 278.422 192.973 278.976 192.973C279.531 192.973 279.976 193.418 279.976 193.972Z" fill="#EFEFEF"/>
<path d="M272.394 201.418C272.946 201.418 273.394 200.971 273.394 200.419C273.394 199.866 272.946 199.419 272.394 199.419C271.842 199.419 271.395 199.866 271.395 200.419C271.395 200.971 271.842 201.418 272.394 201.418Z" fill="#EFEFEF"/>
<path d="M278.976 201.418C279.528 201.418 279.976 200.971 279.976 200.419C279.976 199.866 279.528 199.419 278.976 199.419C278.424 199.419 277.977 199.866 277.977 200.419C277.977 200.971 278.424 201.418 278.976 201.418Z" fill="#EFEFEF"/>
<path d="M286.847 193.972C286.847 194.523 286.402 194.972 285.847 194.972C285.293 194.972 284.848 194.527 284.848 193.972C284.848 193.418 285.293 192.973 285.847 192.973C286.402 192.973 286.847 193.418 286.847 193.972Z" fill="#EFEFEF"/>
<path d="M293.429 193.972C293.429 194.523 292.984 194.972 292.429 194.972C291.875 194.972 291.43 194.527 291.43 193.972C291.43 193.418 291.875 192.973 292.429 192.973C292.984 192.973 293.429 193.418 293.429 193.972Z" fill="#EFEFEF"/>
<path d="M285.851 201.418C286.403 201.418 286.851 200.971 286.851 200.419C286.851 199.866 286.403 199.419 285.851 199.419C285.299 199.419 284.852 199.866 284.852 200.419C284.852 200.971 285.299 201.418 285.851 201.418Z" fill="#EFEFEF"/>
<path d="M292.433 201.418C292.985 201.418 293.433 200.971 293.433 200.419C293.433 199.866 292.985 199.419 292.433 199.419C291.881 199.419 291.434 199.866 291.434 200.419C291.434 200.971 291.881 201.418 292.433 201.418Z" fill="#EFEFEF"/>
<path d="M259.935 206.935C259.935 207.486 259.49 207.935 258.935 207.935C258.381 207.935 257.936 207.49 257.936 206.935C257.936 206.381 258.381 205.936 258.935 205.936C259.49 205.936 259.935 206.381 259.935 206.935Z" fill="#EFEFEF"/>
<path d="M266.517 206.935C266.517 207.486 266.072 207.935 265.517 207.935C264.963 207.935 264.518 207.49 264.518 206.935C264.518 206.381 264.963 205.936 265.517 205.936C266.072 205.936 266.517 206.381 266.517 206.935Z" fill="#EFEFEF"/>
<path d="M259.935 213.381C259.935 213.932 259.49 214.381 258.935 214.381C258.381 214.381 257.936 213.936 257.936 213.381C257.936 212.827 258.381 212.382 258.935 212.382C259.49 212.382 259.935 212.827 259.935 213.381Z" fill="#EFEFEF"/>
<path d="M266.517 213.381C266.517 213.932 266.072 214.381 265.517 214.381C264.963 214.381 264.518 213.936 264.518 213.381C264.518 212.827 264.963 212.382 265.517 212.382C266.072 212.382 266.517 212.827 266.517 213.381Z" fill="#EFEFEF"/>
<path d="M272.394 207.935C272.946 207.935 273.394 207.487 273.394 206.935C273.394 206.383 272.946 205.936 272.394 205.936C271.842 205.936 271.395 206.383 271.395 206.935C271.395 207.487 271.842 207.935 272.394 207.935Z" fill="#EFEFEF"/>
<path d="M278.976 207.935C279.528 207.935 279.976 207.487 279.976 206.935C279.976 206.383 279.528 205.936 278.976 205.936C278.424 205.936 277.977 206.383 277.977 206.935C277.977 207.487 278.424 207.935 278.976 207.935Z" fill="#EFEFEF"/>
<path d="M273.394 213.381C273.394 213.932 272.949 214.381 272.394 214.381C271.84 214.381 271.395 213.936 271.395 213.381C271.395 212.827 271.84 212.382 272.394 212.382C272.949 212.382 273.394 212.827 273.394 213.381Z" fill="#EFEFEF"/>
<path d="M279.976 213.381C279.976 213.932 279.531 214.381 278.976 214.381C278.422 214.381 277.977 213.936 277.977 213.381C277.977 212.827 278.422 212.382 278.976 212.382C279.531 212.382 279.976 212.827 279.976 213.381Z" fill="#EFEFEF"/>
<path d="M285.851 207.935C286.403 207.935 286.851 207.487 286.851 206.935C286.851 206.383 286.403 205.936 285.851 205.936C285.299 205.936 284.852 206.383 284.852 206.935C284.852 207.487 285.299 207.935 285.851 207.935Z" fill="#EFEFEF"/>
<path d="M292.433 207.935C292.985 207.935 293.433 207.487 293.433 206.935C293.433 206.383 292.985 205.936 292.433 205.936C291.881 205.936 291.434 206.383 291.434 206.935C291.434 207.487 291.881 207.935 292.433 207.935Z" fill="#EFEFEF"/>
<path d="M286.847 213.381C286.847 213.932 286.402 214.381 285.847 214.381C285.293 214.381 284.848 213.936 284.848 213.381C284.848 212.827 285.293 212.382 285.847 212.382C286.402 212.382 286.847 212.827 286.847 213.381Z" fill="#EFEFEF"/>
<path d="M293.429 213.381C293.429 213.932 292.984 214.381 292.429 214.381C291.875 214.381 291.43 213.936 291.43 213.381C291.43 212.827 291.875 212.382 292.429 212.382C292.984 212.382 293.429 212.827 293.429 213.381Z" fill="#EFEFEF"/>
<path d="M259.935 219.901C259.935 220.452 259.49 220.9 258.935 220.9C258.381 220.9 257.936 220.455 257.936 219.901C257.936 219.346 258.381 218.901 258.935 218.901C259.49 218.901 259.935 219.346 259.935 219.901Z" fill="#EFEFEF"/>
<path d="M266.517 219.901C266.517 220.452 266.072 220.9 265.517 220.9C264.963 220.9 264.518 220.455 264.518 219.901C264.518 219.346 264.963 218.901 265.517 218.901C266.072 218.901 266.517 219.346 266.517 219.901Z" fill="#EFEFEF"/>
<path d="M259.935 226.347C259.935 226.898 259.49 227.347 258.935 227.347C258.381 227.347 257.936 226.902 257.936 226.347C257.936 225.793 258.381 225.348 258.935 225.348C259.49 225.348 259.935 225.793 259.935 226.347Z" fill="#EFEFEF"/>
<path d="M266.517 226.347C266.517 226.898 266.072 227.347 265.517 227.347C264.963 227.347 264.518 226.902 264.518 226.347C264.518 225.793 264.963 225.348 265.517 225.348C266.072 225.348 266.517 225.793 266.517 226.347Z" fill="#EFEFEF"/>
<path d="M273.394 219.901C273.394 220.452 272.949 220.9 272.394 220.9C271.84 220.9 271.395 220.455 271.395 219.901C271.395 219.346 271.84 218.901 272.394 218.901C272.949 218.901 273.394 219.346 273.394 219.901Z" fill="#EFEFEF"/>
<path d="M279.976 219.901C279.976 220.452 279.531 220.9 278.976 220.9C278.422 220.9 277.977 220.455 277.977 219.901C277.977 219.346 278.422 218.901 278.976 218.901C279.531 218.901 279.976 219.346 279.976 219.901Z" fill="#EFEFEF"/>
<path d="M273.394 226.347C273.394 226.898 272.949 227.347 272.394 227.347C271.84 227.347 271.395 226.902 271.395 226.347C271.395 225.793 271.84 225.348 272.394 225.348C272.949 225.348 273.394 225.793 273.394 226.347Z" fill="#EFEFEF"/>
<path d="M279.976 226.347C279.976 226.898 279.531 227.347 278.976 227.347C278.422 227.347 277.977 226.902 277.977 226.347C277.977 225.793 278.422 225.348 278.976 225.348C279.531 225.348 279.976 225.793 279.976 226.347Z" fill="#EFEFEF"/>
<path d="M286.847 219.901C286.847 220.452 286.402 220.9 285.847 220.9C285.293 220.9 284.848 220.455 284.848 219.901C284.848 219.346 285.293 218.901 285.847 218.901C286.402 218.901 286.847 219.346 286.847 219.901Z" fill="#EFEFEF"/>
<path d="M293.429 219.901C293.429 220.452 292.984 220.9 292.429 220.9C291.875 220.9 291.43 220.455 291.43 219.901C291.43 219.346 291.875 218.901 292.429 218.901C292.984 218.901 293.429 219.346 293.429 219.901Z" fill="#EFEFEF"/>
<path d="M286.847 226.347C286.847 226.898 286.402 227.347 285.847 227.347C285.293 227.347 284.848 226.902 284.848 226.347C284.848 225.793 285.293 225.348 285.847 225.348C286.402 225.348 286.847 225.793 286.847 226.347Z" fill="#EFEFEF"/>
<path d="M293.429 226.347C293.429 226.898 292.984 227.347 292.429 227.347C291.875 227.347 291.43 226.902 291.43 226.347C291.43 225.793 291.875 225.348 292.429 225.348C292.984 225.348 293.429 225.793 293.429 226.347Z" fill="#EFEFEF"/>
<path d="M300.382 193.972C300.382 194.523 299.937 194.972 299.382 194.972C298.828 194.972 298.383 194.527 298.383 193.972C298.383 193.418 298.828 192.973 299.382 192.973C299.937 192.973 300.382 193.418 300.382 193.972Z" fill="#EFEFEF"/>
<path d="M306.964 193.972C306.964 194.523 306.519 194.972 305.964 194.972C305.41 194.972 304.965 194.527 304.965 193.972C304.965 193.418 305.41 192.973 305.964 192.973C306.519 192.973 306.964 193.418 306.964 193.972Z" fill="#EFEFEF"/>
<path d="M299.382 201.418C299.934 201.418 300.382 200.971 300.382 200.419C300.382 199.866 299.934 199.419 299.382 199.419C298.83 199.419 298.383 199.866 298.383 200.419C298.383 200.971 298.83 201.418 299.382 201.418Z" fill="#EFEFEF"/>
<path d="M305.964 201.418C306.516 201.418 306.964 200.971 306.964 200.419C306.964 199.866 306.516 199.419 305.964 199.419C305.412 199.419 304.965 199.866 304.965 200.419C304.965 200.971 305.412 201.418 305.964 201.418Z" fill="#EFEFEF"/>
<path d="M313.835 193.972C313.835 194.523 313.39 194.972 312.836 194.972C312.281 194.972 311.836 194.527 311.836 193.972C311.836 193.418 312.281 192.973 312.836 192.973C313.39 192.973 313.835 193.418 313.835 193.972Z" fill="#EFEFEF"/>
<path d="M320.417 193.972C320.417 194.523 319.972 194.972 319.418 194.972C318.863 194.972 318.418 194.527 318.418 193.972C318.418 193.418 318.863 192.973 319.418 192.973C319.972 192.973 320.417 193.418 320.417 193.972Z" fill="#EFEFEF"/>
<path d="M312.839 201.418C313.391 201.418 313.839 200.971 313.839 200.419C313.839 199.866 313.391 199.419 312.839 199.419C312.287 199.419 311.84 199.866 311.84 200.419C311.84 200.971 312.287 201.418 312.839 201.418Z" fill="#EFEFEF"/>
<path d="M319.421 201.418C319.974 201.418 320.421 200.971 320.421 200.419C320.421 199.866 319.974 199.419 319.421 199.419C318.869 199.419 318.422 199.866 318.422 200.419C318.422 200.971 318.869 201.418 319.421 201.418Z" fill="#EFEFEF"/>
<path d="M327.294 193.972C327.294 194.523 326.849 194.972 326.294 194.972C325.74 194.972 325.295 194.527 325.295 193.972C325.295 193.418 325.74 192.973 326.294 192.973C326.849 192.973 327.294 193.418 327.294 193.972Z" fill="#EFEFEF"/>
<path d="M326.294 201.418C326.847 201.418 327.294 200.971 327.294 200.419C327.294 199.866 326.847 199.419 326.294 199.419C325.742 199.419 325.295 199.866 325.295 200.419C325.295 200.971 325.742 201.418 326.294 201.418Z" fill="#EFEFEF"/>
<path d="M299.382 207.935C299.934 207.935 300.382 207.487 300.382 206.935C300.382 206.383 299.934 205.936 299.382 205.936C298.83 205.936 298.383 206.383 298.383 206.935C298.383 207.487 298.83 207.935 299.382 207.935Z" fill="#EFEFEF"/>
<path d="M305.964 207.935C306.516 207.935 306.964 207.487 306.964 206.935C306.964 206.383 306.516 205.936 305.964 205.936C305.412 205.936 304.965 206.383 304.965 206.935C304.965 207.487 305.412 207.935 305.964 207.935Z" fill="#EFEFEF"/>
<path d="M300.382 213.381C300.382 213.932 299.937 214.381 299.382 214.381C298.828 214.381 298.383 213.936 298.383 213.381C298.383 212.827 298.828 212.382 299.382 212.382C299.937 212.382 300.382 212.827 300.382 213.381Z" fill="#EFEFEF"/>
<path d="M306.964 213.381C306.964 213.932 306.519 214.381 305.964 214.381C305.41 214.381 304.965 213.936 304.965 213.381C304.965 212.827 305.41 212.382 305.964 212.382C306.519 212.382 306.964 212.827 306.964 213.381Z" fill="#EFEFEF"/>
<path d="M312.839 207.935C313.391 207.935 313.839 207.487 313.839 206.935C313.839 206.383 313.391 205.936 312.839 205.936C312.287 205.936 311.84 206.383 311.84 206.935C311.84 207.487 312.287 207.935 312.839 207.935Z" fill="#EFEFEF"/>
<path d="M319.421 207.935C319.974 207.935 320.421 207.487 320.421 206.935C320.421 206.383 319.974 205.936 319.421 205.936C318.869 205.936 318.422 206.383 318.422 206.935C318.422 207.487 318.869 207.935 319.421 207.935Z" fill="#EFEFEF"/>
<path d="M313.835 213.381C313.835 213.932 313.39 214.381 312.836 214.381C312.281 214.381 311.836 213.936 311.836 213.381C311.836 212.827 312.281 212.382 312.836 212.382C313.39 212.382 313.835 212.827 313.835 213.381Z" fill="#EFEFEF"/>
<path d="M320.417 213.381C320.417 213.932 319.972 214.381 319.418 214.381C318.863 214.381 318.418 213.936 318.418 213.381C318.418 212.827 318.863 212.382 319.418 212.382C319.972 212.382 320.417 212.827 320.417 213.381Z" fill="#EFEFEF"/>
<path d="M326.294 207.935C326.847 207.935 327.294 207.487 327.294 206.935C327.294 206.383 326.847 205.936 326.294 205.936C325.742 205.936 325.295 206.383 325.295 206.935C325.295 207.487 325.742 207.935 326.294 207.935Z" fill="#EFEFEF"/>
<path d="M327.294 213.381C327.294 213.932 326.849 214.381 326.294 214.381C325.74 214.381 325.295 213.936 325.295 213.381C325.295 212.827 325.74 212.382 326.294 212.382C326.849 212.382 327.294 212.827 327.294 213.381Z" fill="#EFEFEF"/>
<path d="M300.382 219.901C300.382 220.452 299.937 220.9 299.382 220.9C298.828 220.9 298.383 220.455 298.383 219.901C298.383 219.346 298.828 218.901 299.382 218.901C299.937 218.901 300.382 219.346 300.382 219.901Z" fill="#EFEFEF"/>
<path d="M306.964 219.901C306.964 220.452 306.519 220.9 305.964 220.9C305.41 220.9 304.965 220.455 304.965 219.901C304.965 219.346 305.41 218.901 305.964 218.901C306.519 218.901 306.964 219.346 306.964 219.901Z" fill="#EFEFEF"/>
<path d="M300.382 226.347C300.382 226.898 299.937 227.347 299.382 227.347C298.828 227.347 298.383 226.902 298.383 226.347C298.383 225.793 298.828 225.348 299.382 225.348C299.937 225.348 300.382 225.793 300.382 226.347Z" fill="#EFEFEF"/>
<path d="M306.964 226.347C306.964 226.898 306.519 227.347 305.964 227.347C305.41 227.347 304.965 226.902 304.965 226.347C304.965 225.793 305.41 225.348 305.964 225.348C306.519 225.348 306.964 225.793 306.964 226.347Z" fill="#EFEFEF"/>
<path d="M313.835 219.901C313.835 220.452 313.39 220.9 312.836 220.9C312.281 220.9 311.836 220.455 311.836 219.901C311.836 219.346 312.281 218.901 312.836 218.901C313.39 218.901 313.835 219.346 313.835 219.901Z" fill="#EFEFEF"/>
<path d="M320.417 219.901C320.417 220.452 319.972 220.9 319.418 220.9C318.863 220.9 318.418 220.455 318.418 219.901C318.418 219.346 318.863 218.901 319.418 218.901C319.972 218.901 320.417 219.346 320.417 219.901Z" fill="#EFEFEF"/>
<path d="M313.835 226.347C313.835 226.898 313.39 227.347 312.836 227.347C312.281 227.347 311.836 226.902 311.836 226.347C311.836 225.793 312.281 225.348 312.836 225.348C313.39 225.348 313.835 225.793 313.835 226.347Z" fill="#EFEFEF"/>
<path d="M320.417 226.347C320.417 226.898 319.972 227.347 319.418 227.347C318.863 227.347 318.418 226.902 318.418 226.347C318.418 225.793 318.863 225.348 319.418 225.348C319.972 225.348 320.417 225.793 320.417 226.347Z" fill="#EFEFEF"/>
<path d="M327.294 219.901C327.294 220.452 326.849 220.9 326.294 220.9C325.74 220.9 325.295 220.455 325.295 219.901C325.295 219.346 325.74 218.901 326.294 218.901C326.849 218.901 327.294 219.346 327.294 219.901Z" fill="#EFEFEF"/>
<path d="M327.294 226.347C327.294 226.898 326.849 227.347 326.294 227.347C325.74 227.347 325.295 226.902 325.295 226.347C325.295 225.793 325.74 225.348 326.294 225.348C326.849 225.348 327.294 225.793 327.294 226.347Z" fill="#EFEFEF"/>
<path d="M259.935 233.082C259.935 233.633 259.49 234.081 258.935 234.081C258.381 234.081 257.936 233.636 257.936 233.082C257.936 232.527 258.381 232.082 258.935 232.082C259.49 232.082 259.935 232.527 259.935 233.082Z" fill="#EFEFEF"/>
<path d="M266.517 233.082C266.517 233.633 266.072 234.081 265.517 234.081C264.963 234.081 264.518 233.636 264.518 233.082C264.518 232.527 264.963 232.082 265.517 232.082C266.072 232.082 266.517 232.527 266.517 233.082Z" fill="#EFEFEF"/>
<path d="M259.935 239.528C259.935 240.079 259.49 240.527 258.935 240.527C258.381 240.527 257.936 240.082 257.936 239.528C257.936 238.973 258.381 238.528 258.935 238.528C259.49 238.528 259.935 238.973 259.935 239.528Z" fill="#EFEFEF"/>
<path d="M266.517 239.528C266.517 240.079 266.072 240.527 265.517 240.527C264.963 240.527 264.518 240.082 264.518 239.528C264.518 238.973 264.963 238.528 265.517 238.528C266.072 238.528 266.517 238.973 266.517 239.528Z" fill="#EFEFEF"/>
<path d="M273.394 233.082C273.394 233.633 272.949 234.081 272.394 234.081C271.84 234.081 271.395 233.636 271.395 233.082C271.395 232.527 271.84 232.082 272.394 232.082C272.949 232.082 273.394 232.527 273.394 233.082Z" fill="#EFEFEF"/>
<path d="M279.976 233.082C279.976 233.633 279.531 234.081 278.976 234.081C278.422 234.081 277.977 233.636 277.977 233.082C277.977 232.527 278.422 232.082 278.976 232.082C279.531 232.082 279.976 232.527 279.976 233.082Z" fill="#EFEFEF"/>
<path d="M273.394 239.528C273.394 240.079 272.949 240.527 272.394 240.527C271.84 240.527 271.395 240.082 271.395 239.528C271.395 238.973 271.84 238.528 272.394 238.528C272.949 238.528 273.394 238.973 273.394 239.528Z" fill="#EFEFEF"/>
<path d="M279.976 239.528C279.976 240.079 279.531 240.527 278.976 240.527C278.422 240.527 277.977 240.082 277.977 239.528C277.977 238.973 278.422 238.528 278.976 238.528C279.531 238.528 279.976 238.973 279.976 239.528Z" fill="#EFEFEF"/>
<path d="M286.847 233.082C286.847 233.633 286.402 234.081 285.847 234.081C285.293 234.081 284.848 233.636 284.848 233.082C284.848 232.527 285.293 232.082 285.847 232.082C286.402 232.082 286.847 232.527 286.847 233.082Z" fill="#EFEFEF"/>
<path d="M293.429 233.082C293.429 233.633 292.984 234.081 292.429 234.081C291.875 234.081 291.43 233.636 291.43 233.082C291.43 232.527 291.875 232.082 292.429 232.082C292.984 232.082 293.429 232.527 293.429 233.082Z" fill="#EFEFEF"/>
<path d="M286.847 239.528C286.847 240.079 286.402 240.527 285.847 240.527C285.293 240.527 284.848 240.082 284.848 239.528C284.848 238.973 285.293 238.528 285.847 238.528C286.402 238.528 286.847 238.973 286.847 239.528Z" fill="#EFEFEF"/>
<path d="M293.429 239.528C293.429 240.079 292.984 240.527 292.429 240.527C291.875 240.527 291.43 240.082 291.43 239.528C291.43 238.973 291.875 238.528 292.429 238.528C292.984 238.528 293.429 238.973 293.429 239.528Z" fill="#EFEFEF"/>
<path d="M259.935 246.044C259.935 246.595 259.49 247.043 258.935 247.043C258.381 247.043 257.936 246.598 257.936 246.044C257.936 245.489 258.381 245.044 258.935 245.044C259.49 245.044 259.935 245.489 259.935 246.044Z" fill="#EFEFEF"/>
<path d="M266.517 246.044C266.517 246.595 266.072 247.043 265.517 247.043C264.963 247.043 264.518 246.598 264.518 246.044C264.518 245.489 264.963 245.044 265.517 245.044C266.072 245.044 266.517 245.489 266.517 246.044Z" fill="#EFEFEF"/>
<path d="M259.935 252.49C259.935 253.041 259.49 253.489 258.935 253.489C258.381 253.489 257.936 253.044 257.936 252.49C257.936 251.935 258.381 251.49 258.935 251.49C259.49 251.49 259.935 251.935 259.935 252.49Z" fill="#EFEFEF"/>
<path d="M266.517 252.49C266.517 253.041 266.072 253.489 265.517 253.489C264.963 253.489 264.518 253.044 264.518 252.49C264.518 251.935 264.963 251.49 265.517 251.49C266.072 251.49 266.517 251.935 266.517 252.49Z" fill="#EFEFEF"/>
<path d="M272.394 247.043C272.946 247.043 273.394 246.596 273.394 246.044C273.394 245.491 272.946 245.044 272.394 245.044C271.842 245.044 271.395 245.491 271.395 246.044C271.395 246.596 271.842 247.043 272.394 247.043Z" fill="#EFEFEF"/>
<path d="M278.976 247.043C279.528 247.043 279.976 246.596 279.976 246.044C279.976 245.491 279.528 245.044 278.976 245.044C278.424 245.044 277.977 245.491 277.977 246.044C277.977 246.596 278.424 247.043 278.976 247.043Z" fill="#EFEFEF"/>
<path d="M272.394 253.489C272.946 253.489 273.394 253.042 273.394 252.49C273.394 251.938 272.946 251.49 272.394 251.49C271.842 251.49 271.395 251.938 271.395 252.49C271.395 253.042 271.842 253.489 272.394 253.489Z" fill="#EFEFEF"/>
<path d="M278.976 253.489C279.528 253.489 279.976 253.042 279.976 252.49C279.976 251.938 279.528 251.49 278.976 251.49C278.424 251.49 277.977 251.938 277.977 252.49C277.977 253.042 278.424 253.489 278.976 253.489Z" fill="#EFEFEF"/>
<path d="M285.851 247.043C286.403 247.043 286.851 246.596 286.851 246.044C286.851 245.491 286.403 245.044 285.851 245.044C285.299 245.044 284.852 245.491 284.852 246.044C284.852 246.596 285.299 247.043 285.851 247.043Z" fill="#EFEFEF"/>
<path d="M292.433 247.043C292.985 247.043 293.433 246.596 293.433 246.044C293.433 245.491 292.985 245.044 292.433 245.044C291.881 245.044 291.434 245.491 291.434 246.044C291.434 246.596 291.881 247.043 292.433 247.043Z" fill="#EFEFEF"/>
<path d="M285.851 253.489C286.403 253.489 286.851 253.042 286.851 252.49C286.851 251.938 286.403 251.49 285.851 251.49C285.299 251.49 284.852 251.938 284.852 252.49C284.852 253.042 285.299 253.489 285.851 253.489Z" fill="#EFEFEF"/>
<path d="M292.433 253.489C292.985 253.489 293.433 253.042 293.433 252.49C293.433 251.938 292.985 251.49 292.433 251.49C291.881 251.49 291.434 251.938 291.434 252.49C291.434 253.042 291.881 253.489 292.433 253.489Z" fill="#EFEFEF"/>
<path d="M259.935 259.008C259.935 259.559 259.49 260.008 258.935 260.008C258.381 260.008 257.936 259.563 257.936 259.008C257.936 258.454 258.381 258.009 258.935 258.009C259.49 258.009 259.935 258.454 259.935 259.008Z" fill="#EFEFEF"/>
<path d="M266.517 259.008C266.517 259.559 266.072 260.008 265.517 260.008C264.963 260.008 264.518 259.563 264.518 259.008C264.518 258.454 264.963 258.009 265.517 258.009C266.072 258.009 266.517 258.454 266.517 259.008Z" fill="#EFEFEF"/>
<path d="M259.935 265.451C259.935 266.002 259.49 266.45 258.935 266.45C258.381 266.45 257.936 266.005 257.936 265.451C257.936 264.896 258.381 264.451 258.935 264.451C259.49 264.451 259.935 264.896 259.935 265.451Z" fill="#EFEFEF"/>
<path d="M266.517 265.451C266.517 266.002 266.072 266.45 265.517 266.45C264.963 266.45 264.518 266.005 264.518 265.451C264.518 264.896 264.963 264.451 265.517 264.451C266.072 264.451 266.517 264.896 266.517 265.451Z" fill="#EFEFEF"/>
<path d="M272.394 260.008C272.946 260.008 273.394 259.56 273.394 259.008C273.394 258.456 272.946 258.009 272.394 258.009C271.842 258.009 271.395 258.456 271.395 259.008C271.395 259.56 271.842 260.008 272.394 260.008Z" fill="#EFEFEF"/>
<path d="M278.976 260.008C279.528 260.008 279.976 259.56 279.976 259.008C279.976 258.456 279.528 258.009 278.976 258.009C278.424 258.009 277.977 258.456 277.977 259.008C277.977 259.56 278.424 260.008 278.976 260.008Z" fill="#EFEFEF"/>
<path d="M273.394 265.451C273.394 266.002 272.949 266.45 272.394 266.45C271.84 266.45 271.395 266.005 271.395 265.451C271.395 264.896 271.84 264.451 272.394 264.451C272.949 264.451 273.394 264.896 273.394 265.451Z" fill="#EFEFEF"/>
<path d="M279.976 265.451C279.976 266.002 279.531 266.45 278.976 266.45C278.422 266.45 277.977 266.005 277.977 265.451C277.977 264.896 278.422 264.451 278.976 264.451C279.531 264.451 279.976 264.896 279.976 265.451Z" fill="#EFEFEF"/>
<path d="M285.851 260.008C286.403 260.008 286.851 259.56 286.851 259.008C286.851 258.456 286.403 258.009 285.851 258.009C285.299 258.009 284.852 258.456 284.852 259.008C284.852 259.56 285.299 260.008 285.851 260.008Z" fill="#EFEFEF"/>
<path d="M292.433 260.008C292.985 260.008 293.433 259.56 293.433 259.008C293.433 258.456 292.985 258.009 292.433 258.009C291.881 258.009 291.434 258.456 291.434 259.008C291.434 259.56 291.881 260.008 292.433 260.008Z" fill="#EFEFEF"/>
<path d="M286.847 265.451C286.847 266.002 286.402 266.45 285.847 266.45C285.293 266.45 284.848 266.005 284.848 265.451C284.848 264.896 285.293 264.451 285.847 264.451C286.402 264.451 286.847 264.896 286.847 265.451Z" fill="#EFEFEF"/>
<path d="M293.429 265.451C293.429 266.002 292.984 266.45 292.429 266.45C291.875 266.45 291.43 266.005 291.43 265.451C291.43 264.896 291.875 264.451 292.429 264.451C292.984 264.451 293.429 264.896 293.429 265.451Z" fill="#EFEFEF"/>
<path d="M300.382 233.082C300.382 233.633 299.937 234.081 299.382 234.081C298.828 234.081 298.383 233.636 298.383 233.082C298.383 232.527 298.828 232.082 299.382 232.082C299.937 232.082 300.382 232.527 300.382 233.082Z" fill="#EFEFEF"/>
<path d="M306.964 233.082C306.964 233.633 306.519 234.081 305.964 234.081C305.41 234.081 304.965 233.636 304.965 233.082C304.965 232.527 305.41 232.082 305.964 232.082C306.519 232.082 306.964 232.527 306.964 233.082Z" fill="#EFEFEF"/>
<path d="M300.382 239.528C300.382 240.079 299.937 240.527 299.382 240.527C298.828 240.527 298.383 240.082 298.383 239.528C298.383 238.973 298.828 238.528 299.382 238.528C299.937 238.528 300.382 238.973 300.382 239.528Z" fill="#EFEFEF"/>
<path d="M306.964 239.528C306.964 240.079 306.519 240.527 305.964 240.527C305.41 240.527 304.965 240.082 304.965 239.528C304.965 238.973 305.41 238.528 305.964 238.528C306.519 238.528 306.964 238.973 306.964 239.528Z" fill="#EFEFEF"/>
<path d="M313.835 233.082C313.835 233.633 313.39 234.081 312.836 234.081C312.281 234.081 311.836 233.636 311.836 233.082C311.836 232.527 312.281 232.082 312.836 232.082C313.39 232.082 313.835 232.527 313.835 233.082Z" fill="#EFEFEF"/>
<path d="M320.417 233.082C320.417 233.633 319.972 234.081 319.418 234.081C318.863 234.081 318.418 233.636 318.418 233.082C318.418 232.527 318.863 232.082 319.418 232.082C319.972 232.082 320.417 232.527 320.417 233.082Z" fill="#EFEFEF"/>
<path d="M313.835 239.528C313.835 240.079 313.39 240.527 312.836 240.527C312.281 240.527 311.836 240.082 311.836 239.528C311.836 238.973 312.281 238.528 312.836 238.528C313.39 238.528 313.835 238.973 313.835 239.528Z" fill="#EFEFEF"/>
<path d="M320.417 239.528C320.417 240.079 319.972 240.527 319.418 240.527C318.863 240.527 318.418 240.082 318.418 239.528C318.418 238.973 318.863 238.528 319.418 238.528C319.972 238.528 320.417 238.973 320.417 239.528Z" fill="#EFEFEF"/>
<path d="M327.294 233.082C327.294 233.633 326.849 234.081 326.294 234.081C325.74 234.081 325.295 233.636 325.295 233.082C325.295 232.527 325.74 232.082 326.294 232.082C326.849 232.082 327.294 232.527 327.294 233.082Z" fill="#EFEFEF"/>
<path d="M327.294 239.528C327.294 240.079 326.849 240.527 326.294 240.527C325.74 240.527 325.295 240.082 325.295 239.528C325.295 238.973 325.74 238.528 326.294 238.528C326.849 238.528 327.294 238.973 327.294 239.528Z" fill="#EFEFEF"/>
<path d="M299.382 247.043C299.934 247.043 300.382 246.596 300.382 246.044C300.382 245.491 299.934 245.044 299.382 245.044C298.83 245.044 298.383 245.491 298.383 246.044C298.383 246.596 298.83 247.043 299.382 247.043Z" fill="#EFEFEF"/>
<path d="M305.964 247.043C306.516 247.043 306.964 246.596 306.964 246.044C306.964 245.491 306.516 245.044 305.964 245.044C305.412 245.044 304.965 245.491 304.965 246.044C304.965 246.596 305.412 247.043 305.964 247.043Z" fill="#EFEFEF"/>
<path d="M299.382 253.489C299.934 253.489 300.382 253.042 300.382 252.49C300.382 251.938 299.934 251.49 299.382 251.49C298.83 251.49 298.383 251.938 298.383 252.49C298.383 253.042 298.83 253.489 299.382 253.489Z" fill="#EFEFEF"/>
<path d="M305.964 253.489C306.516 253.489 306.964 253.042 306.964 252.49C306.964 251.938 306.516 251.49 305.964 251.49C305.412 251.49 304.965 251.938 304.965 252.49C304.965 253.042 305.412 253.489 305.964 253.489Z" fill="#EFEFEF"/>
<path d="M312.841 247.043C313.393 247.043 313.841 246.596 313.841 246.044C313.841 245.491 313.393 245.044 312.841 245.044C312.289 245.044 311.842 245.491 311.842 246.044C311.842 246.596 312.289 247.043 312.841 247.043Z" fill="#EFEFEF"/>
<path d="M319.423 247.043C319.975 247.043 320.423 246.596 320.423 246.044C320.423 245.491 319.975 245.044 319.423 245.044C318.871 245.044 318.424 245.491 318.424 246.044C318.424 246.596 318.871 247.043 319.423 247.043Z" fill="#EFEFEF"/>
<path d="M312.841 253.489C313.393 253.489 313.841 253.042 313.841 252.49C313.841 251.938 313.393 251.49 312.841 251.49C312.289 251.49 311.842 251.938 311.842 252.49C311.842 253.042 312.289 253.489 312.841 253.489Z" fill="#EFEFEF"/>
<path d="M319.423 253.489C319.975 253.489 320.423 253.042 320.423 252.49C320.423 251.938 319.975 251.49 319.423 251.49C318.871 251.49 318.424 251.938 318.424 252.49C318.424 253.042 318.871 253.489 319.423 253.489Z" fill="#EFEFEF"/>
<path d="M326.294 247.043C326.847 247.043 327.294 246.596 327.294 246.044C327.294 245.491 326.847 245.044 326.294 245.044C325.742 245.044 325.295 245.491 325.295 246.044C325.295 246.596 325.742 247.043 326.294 247.043Z" fill="#EFEFEF"/>
<path d="M326.294 253.489C326.847 253.489 327.294 253.042 327.294 252.49C327.294 251.938 326.847 251.49 326.294 251.49C325.742 251.49 325.295 251.938 325.295 252.49C325.295 253.042 325.742 253.489 326.294 253.489Z" fill="#EFEFEF"/>
<path d="M299.382 260.008C299.934 260.008 300.382 259.56 300.382 259.008C300.382 258.456 299.934 258.009 299.382 258.009C298.83 258.009 298.383 258.456 298.383 259.008C298.383 259.56 298.83 260.008 299.382 260.008Z" fill="#EFEFEF"/>
<path d="M305.964 260.008C306.516 260.008 306.964 259.56 306.964 259.008C306.964 258.456 306.516 258.009 305.964 258.009C305.412 258.009 304.965 258.456 304.965 259.008C304.965 259.56 305.412 260.008 305.964 260.008Z" fill="#EFEFEF"/>
<path d="M300.382 265.451C300.382 266.002 299.937 266.45 299.382 266.45C298.828 266.45 298.383 266.005 298.383 265.451C298.383 264.896 298.828 264.451 299.382 264.451C299.937 264.451 300.382 264.896 300.382 265.451Z" fill="#EFEFEF"/>
<path d="M306.964 265.451C306.964 266.002 306.519 266.45 305.964 266.45C305.41 266.45 304.965 266.005 304.965 265.451C304.965 264.896 305.41 264.451 305.964 264.451C306.519 264.451 306.964 264.896 306.964 265.451Z" fill="#EFEFEF"/>
<path d="M312.839 260.008C313.391 260.008 313.839 259.56 313.839 259.008C313.839 258.456 313.391 258.009 312.839 258.009C312.287 258.009 311.84 258.456 311.84 259.008C311.84 259.56 312.287 260.008 312.839 260.008Z" fill="#EFEFEF"/>
<path d="M319.421 260.008C319.974 260.008 320.421 259.56 320.421 259.008C320.421 258.456 319.974 258.009 319.421 258.009C318.869 258.009 318.422 258.456 318.422 259.008C318.422 259.56 318.869 260.008 319.421 260.008Z" fill="#EFEFEF"/>
<path d="M313.835 265.451C313.835 266.002 313.39 266.45 312.836 266.45C312.281 266.45 311.836 266.005 311.836 265.451C311.836 264.896 312.281 264.451 312.836 264.451C313.39 264.451 313.835 264.896 313.835 265.451Z" fill="#EFEFEF"/>
<path d="M320.417 265.451C320.417 266.002 319.972 266.45 319.418 266.45C318.863 266.45 318.418 266.005 318.418 265.451C318.418 264.896 318.863 264.451 319.418 264.451C319.972 264.451 320.417 264.896 320.417 265.451Z" fill="#EFEFEF"/>
<path d="M326.294 260.008C326.847 260.008 327.294 259.56 327.294 259.008C327.294 258.456 326.847 258.009 326.294 258.009C325.742 258.009 325.295 258.456 325.295 259.008C325.295 259.56 325.742 260.008 326.294 260.008Z" fill="#EFEFEF"/>
<path d="M327.294 265.451C327.294 266.002 326.849 266.45 326.294 266.45C325.74 266.45 325.295 266.005 325.295 265.451C325.295 264.896 325.74 264.451 326.294 264.451C326.849 264.451 327.294 264.896 327.294 265.451Z" fill="#EFEFEF"/>
</g>
<mask id="mask1_1_25041" style="mask-type:luminance" maskUnits="userSpaceOnUse" x="62" y="470" width="74" height="74">
<path d="M124.663 532.932C138.881 518.714 138.881 495.661 124.663 481.443C110.445 467.225 87.3925 467.225 73.1742 481.443C58.9559 495.661 58.9559 518.714 73.1742 532.932C87.3925 547.15 110.445 547.15 124.663 532.932Z" fill="white"/>
</mask>
<g mask="url(#mask1_1_25041)">
<path d="M64.0675 472.082C64.0675 472.633 63.6225 473.081 63.0679 473.081C62.5134 473.081 62.0684 472.636 62.0684 472.082C62.0684 471.527 62.5134 471.082 63.0679 471.082C63.6225 471.082 64.0675 471.527 64.0675 472.082Z" fill="#EFEFEF"/>
<path d="M70.6495 472.082C70.6495 472.633 70.2045 473.081 69.65 473.081C69.0954 473.081 68.6504 472.636 68.6504 472.082C68.6504 471.527 69.0954 471.082 69.65 471.082C70.2045 471.082 70.6495 471.527 70.6495 472.082Z" fill="#EFEFEF"/>
<path d="M64.0675 478.528C64.0675 479.079 63.6225 479.527 63.0679 479.527C62.5134 479.527 62.0684 479.082 62.0684 478.528C62.0684 477.973 62.5134 477.528 63.0679 477.528C63.6225 477.528 64.0675 477.973 64.0675 478.528Z" fill="#EFEFEF"/>
<path d="M70.6495 478.528C70.6495 479.079 70.2045 479.527 69.65 479.527C69.0954 479.527 68.6504 479.082 68.6504 478.528C68.6504 477.973 69.0954 477.528 69.65 477.528C70.2045 477.528 70.6495 477.973 70.6495 478.528Z" fill="#EFEFEF"/>
<path d="M77.5265 472.082C77.5265 472.633 77.0814 473.081 76.5269 473.081C75.9724 473.081 75.5273 472.636 75.5273 472.082C75.5273 471.527 75.9724 471.082 76.5269 471.082C77.0814 471.082 77.5265 471.527 77.5265 472.082Z" fill="#EFEFEF"/>
<path d="M84.1085 472.082C84.1085 472.633 83.6635 473.081 83.1089 473.081C82.5544 473.081 82.1094 472.636 82.1094 472.082C82.1094 471.527 82.5544 471.082 83.1089 471.082C83.6635 471.082 84.1085 471.527 84.1085 472.082Z" fill="#EFEFEF"/>
<path d="M77.5265 478.528C77.5265 479.079 77.0814 479.527 76.5269 479.527C75.9724 479.527 75.5273 479.082 75.5273 478.528C75.5273 477.973 75.9724 477.528 76.5269 477.528C77.0814 477.528 77.5265 477.973 77.5265 478.528Z" fill="#EFEFEF"/>
<path d="M84.1085 478.528C84.1085 479.079 83.6635 479.527 83.1089 479.527C82.5544 479.527 82.1094 479.082 82.1094 478.528C82.1094 477.973 82.5544 477.528 83.1089 477.528C83.6635 477.528 84.1085 477.973 84.1085 478.528Z" fill="#EFEFEF"/>
<path d="M90.9796 472.082C90.9796 472.633 90.5346 473.081 89.98 473.081C89.4255 473.081 88.9805 472.636 88.9805 472.082C88.9805 471.527 89.4255 471.082 89.98 471.082C90.5346 471.082 90.9796 471.527 90.9796 472.082Z" fill="#EFEFEF"/>
<path d="M97.5616 472.082C97.5616 472.633 97.1166 473.081 96.5621 473.081C96.0075 473.081 95.5625 472.636 95.5625 472.082C95.5625 471.527 96.0075 471.082 96.5621 471.082C97.1166 471.082 97.5616 471.527 97.5616 472.082Z" fill="#EFEFEF"/>
<path d="M90.9796 478.528C90.9796 479.079 90.5346 479.527 89.98 479.527C89.4255 479.527 88.9805 479.082 88.9805 478.528C88.9805 477.973 89.4255 477.528 89.98 477.528C90.5346 477.528 90.9796 477.973 90.9796 478.528Z" fill="#EFEFEF"/>
<path d="M97.5616 478.528C97.5616 479.079 97.1166 479.527 96.5621 479.527C96.0075 479.527 95.5625 479.082 95.5625 478.528C95.5625 477.973 96.0075 477.528 96.5621 477.528C97.1166 477.528 97.5616 477.973 97.5616 478.528Z" fill="#EFEFEF"/>
<path d="M64.0675 485.048C64.0675 485.599 63.6225 486.048 63.0679 486.048C62.5134 486.048 62.0684 485.603 62.0684 485.048C62.0684 484.494 62.5134 484.049 63.0679 484.049C63.6225 484.049 64.0675 484.494 64.0675 485.048Z" fill="#EFEFEF"/>
<path d="M70.6495 485.048C70.6495 485.599 70.2045 486.048 69.65 486.048C69.0954 486.048 68.6504 485.603 68.6504 485.048C68.6504 484.494 69.0954 484.049 69.65 484.049C70.2045 484.049 70.6495 484.494 70.6495 485.048Z" fill="#EFEFEF"/>
<path d="M64.0675 491.491C64.0675 492.042 63.6225 492.49 63.0679 492.49C62.5134 492.49 62.0684 492.045 62.0684 491.491C62.0684 490.936 62.5134 490.491 63.0679 490.491C63.6225 490.491 64.0675 490.936 64.0675 491.491Z" fill="#EFEFEF"/>
<path d="M70.6495 491.491C70.6495 492.042 70.2045 492.49 69.65 492.49C69.0954 492.49 68.6504 492.045 68.6504 491.491C68.6504 490.936 69.0954 490.491 69.65 490.491C70.2045 490.491 70.6495 490.936 70.6495 491.491Z" fill="#EFEFEF"/>
<path d="M77.5265 485.048C77.5265 485.599 77.0814 486.048 76.5269 486.048C75.9724 486.048 75.5273 485.603 75.5273 485.048C75.5273 484.494 75.9724 484.049 76.5269 484.049C77.0814 484.049 77.5265 484.494 77.5265 485.048Z" fill="#EFEFEF"/>
<path d="M84.1085 485.048C84.1085 485.599 83.6635 486.048 83.1089 486.048C82.5544 486.048 82.1094 485.603 82.1094 485.048C82.1094 484.494 82.5544 484.049 83.1089 484.049C83.6635 484.049 84.1085 484.494 84.1085 485.048Z" fill="#EFEFEF"/>
<path d="M77.5265 491.491C77.5265 492.042 77.0814 492.49 76.5269 492.49C75.9724 492.49 75.5273 492.045 75.5273 491.491C75.5273 490.936 75.9724 490.491 76.5269 490.491C77.0814 490.491 77.5265 490.936 77.5265 491.491Z" fill="#EFEFEF"/>
<path d="M84.1085 491.491C84.1085 492.042 83.6635 492.49 83.1089 492.49C82.5544 492.49 82.1094 492.045 82.1094 491.491C82.1094 490.936 82.5544 490.491 83.1089 490.491C83.6635 490.491 84.1085 490.936 84.1085 491.491Z" fill="#EFEFEF"/>
<path d="M90.9796 485.048C90.9796 485.599 90.5346 486.048 89.98 486.048C89.4255 486.048 88.9805 485.603 88.9805 485.048C88.9805 484.494 89.4255 484.049 89.98 484.049C90.5346 484.049 90.9796 484.494 90.9796 485.048Z" fill="#EFEFEF"/>
<path d="M97.5616 485.048C97.5616 485.599 97.1166 486.048 96.5621 486.048C96.0075 486.048 95.5625 485.603 95.5625 485.048C95.5625 484.494 96.0075 484.049 96.5621 484.049C97.1166 484.049 97.5616 484.494 97.5616 485.048Z" fill="#EFEFEF"/>
<path d="M89.9839 492.49C90.536 492.49 90.9835 492.043 90.9835 491.491C90.9835 490.939 90.536 490.491 89.9839 490.491C89.4319 490.491 88.9844 490.939 88.9844 491.491C88.9844 492.043 89.4319 492.49 89.9839 492.49Z" fill="#EFEFEF"/>
<path d="M96.566 492.49C97.118 492.49 97.5655 492.043 97.5655 491.491C97.5655 490.939 97.118 490.491 96.566 490.491C96.0139 490.491 95.5664 490.939 95.5664 491.491C95.5664 492.043 96.0139 492.49 96.566 492.49Z" fill="#EFEFEF"/>
<path d="M64.0675 498.01C64.0675 498.561 63.6225 499.01 63.0679 499.01C62.5134 499.01 62.0684 498.565 62.0684 498.01C62.0684 497.456 62.5134 497.011 63.0679 497.011C63.6225 497.011 64.0675 497.456 64.0675 498.01Z" fill="#EFEFEF"/>
<path d="M70.6495 498.01C70.6495 498.561 70.2045 499.01 69.65 499.01C69.0954 499.01 68.6504 498.565 68.6504 498.01C68.6504 497.456 69.0954 497.011 69.65 497.011C70.2045 497.011 70.6495 497.456 70.6495 498.01Z" fill="#EFEFEF"/>
<path d="M64.0675 504.457C64.0675 505.008 63.6225 505.456 63.0679 505.456C62.5134 505.456 62.0684 505.011 62.0684 504.457C62.0684 503.902 62.5134 503.457 63.0679 503.457C63.6225 503.457 64.0675 503.902 64.0675 504.457Z" fill="#EFEFEF"/>
<path d="M70.6495 504.457C70.6495 505.008 70.2045 505.456 69.65 505.456C69.0954 505.456 68.6504 505.011 68.6504 504.457C68.6504 503.902 69.0954 503.457 69.65 503.457C70.2045 503.457 70.6495 503.902 70.6495 504.457Z" fill="#EFEFEF"/>
<path d="M77.5265 498.01C77.5265 498.561 77.0814 499.01 76.5269 499.01C75.9724 499.01 75.5273 498.565 75.5273 498.01C75.5273 497.456 75.9724 497.011 76.5269 497.011C77.0814 497.011 77.5265 497.456 77.5265 498.01Z" fill="#EFEFEF"/>
<path d="M84.1085 498.01C84.1085 498.561 83.6635 499.01 83.1089 499.01C82.5544 499.01 82.1094 498.565 82.1094 498.01C82.1094 497.456 82.5544 497.011 83.1089 497.011C83.6635 497.011 84.1085 497.456 84.1085 498.01Z" fill="#EFEFEF"/>
<path d="M77.5265 504.457C77.5265 505.008 77.0814 505.456 76.5269 505.456C75.9724 505.456 75.5273 505.011 75.5273 504.457C75.5273 503.902 75.9724 503.457 76.5269 503.457C77.0814 503.457 77.5265 503.902 77.5265 504.457Z" fill="#EFEFEF"/>
<path d="M84.1085 504.457C84.1085 505.008 83.6635 505.456 83.1089 505.456C82.5544 505.456 82.1094 505.011 82.1094 504.457C82.1094 503.902 82.5544 503.457 83.1089 503.457C83.6635 503.457 84.1085 503.902 84.1085 504.457Z" fill="#EFEFEF"/>
<path d="M89.9839 499.01C90.536 499.01 90.9835 498.562 90.9835 498.01C90.9835 497.458 90.536 497.011 89.9839 497.011C89.4319 497.011 88.9844 497.458 88.9844 498.01C88.9844 498.562 89.4319 499.01 89.9839 499.01Z" fill="#EFEFEF"/>
<path d="M96.566 499.01C97.118 499.01 97.5655 498.562 97.5655 498.01C97.5655 497.458 97.118 497.011 96.566 497.011C96.0139 497.011 95.5664 497.458 95.5664 498.01C95.5664 498.562 96.0139 499.01 96.566 499.01Z" fill="#EFEFEF"/>
<path d="M90.9796 504.457C90.9796 505.008 90.5346 505.456 89.98 505.456C89.4255 505.456 88.9805 505.011 88.9805 504.457C88.9805 503.902 89.4255 503.457 89.98 503.457C90.5346 503.457 90.9796 503.902 90.9796 504.457Z" fill="#EFEFEF"/>
<path d="M97.5616 504.457C97.5616 505.008 97.1166 505.456 96.5621 505.456C96.0075 505.456 95.5625 505.011 95.5625 504.457C95.5625 503.902 96.0075 503.457 96.5621 503.457C97.1166 503.457 97.5616 503.902 97.5616 504.457Z" fill="#EFEFEF"/>
<path d="M104.515 472.082C104.515 472.633 104.07 473.081 103.515 473.081C102.961 473.081 102.516 472.636 102.516 472.082C102.516 471.527 102.961 471.082 103.515 471.082C104.07 471.082 104.515 471.527 104.515 472.082Z" fill="#EFEFEF"/>
<path d="M111.097 472.082C111.097 472.633 110.652 473.081 110.097 473.081C109.543 473.081 109.098 472.636 109.098 472.082C109.098 471.527 109.543 471.082 110.097 471.082C110.652 471.082 111.097 471.527 111.097 472.082Z" fill="#EFEFEF"/>
<path d="M104.515 478.528C104.515 479.079 104.07 479.527 103.515 479.527C102.961 479.527 102.516 479.082 102.516 478.528C102.516 477.973 102.961 477.528 103.515 477.528C104.07 477.528 104.515 477.973 104.515 478.528Z" fill="#EFEFEF"/>
<path d="M111.097 478.528C111.097 479.079 110.652 479.527 110.097 479.527C109.543 479.527 109.098 479.082 109.098 478.528C109.098 477.973 109.543 477.528 110.097 477.528C110.652 477.528 111.097 477.973 111.097 478.528Z" fill="#EFEFEF"/>
<path d="M117.97 472.082C117.97 472.633 117.525 473.081 116.97 473.081C116.416 473.081 115.971 472.636 115.971 472.082C115.971 471.527 116.416 471.082 116.97 471.082C117.525 471.082 117.97 471.527 117.97 472.082Z" fill="#EFEFEF"/>
<path d="M124.552 472.082C124.552 472.633 124.107 473.081 123.552 473.081C122.998 473.081 122.553 472.636 122.553 472.082C122.553 471.527 122.998 471.082 123.552 471.082C124.107 471.082 124.552 471.527 124.552 472.082Z" fill="#EFEFEF"/>
<path d="M117.97 478.528C117.97 479.079 117.525 479.527 116.97 479.527C116.416 479.527 115.971 479.082 115.971 478.528C115.971 477.973 116.416 477.528 116.97 477.528C117.525 477.528 117.97 477.973 117.97 478.528Z" fill="#EFEFEF"/>
<path d="M124.552 478.528C124.552 479.079 124.107 479.527 123.552 479.527C122.998 479.527 122.553 479.082 122.553 478.528C122.553 477.973 122.998 477.528 123.552 477.528C124.107 477.528 124.552 477.973 124.552 478.528Z" fill="#EFEFEF"/>
<path d="M131.427 472.082C131.427 472.633 130.982 473.081 130.427 473.081C129.873 473.081 129.428 472.636 129.428 472.082C129.428 471.527 129.873 471.082 130.427 471.082C130.982 471.082 131.427 471.527 131.427 472.082Z" fill="#EFEFEF"/>
<path d="M131.427 478.528C131.427 479.079 130.982 479.527 130.427 479.527C129.873 479.527 129.428 479.082 129.428 478.528C129.428 477.973 129.873 477.528 130.427 477.528C130.982 477.528 131.427 477.973 131.427 478.528Z" fill="#EFEFEF"/>
<path d="M104.515 485.048C104.515 485.599 104.07 486.048 103.515 486.048C102.961 486.048 102.516 485.603 102.516 485.048C102.516 484.494 102.961 484.049 103.515 484.049C104.07 484.049 104.515 484.494 104.515 485.048Z" fill="#EFEFEF"/>
<path d="M111.097 485.048C111.097 485.599 110.652 486.048 110.097 486.048C109.543 486.048 109.098 485.603 109.098 485.048C109.098 484.494 109.543 484.049 110.097 484.049C110.652 484.049 111.097 484.494 111.097 485.048Z" fill="#EFEFEF"/>
<path d="M104.515 491.491C104.515 492.042 104.07 492.49 103.515 492.49C102.961 492.49 102.516 492.045 102.516 491.491C102.516 490.936 102.961 490.491 103.515 490.491C104.07 490.491 104.515 490.936 104.515 491.491Z" fill="#EFEFEF"/>
<path d="M111.097 491.491C111.097 492.042 110.652 492.49 110.097 492.49C109.543 492.49 109.098 492.045 109.098 491.491C109.098 490.936 109.543 490.491 110.097 490.491C110.652 490.491 111.097 490.936 111.097 491.491Z" fill="#EFEFEF"/>
<path d="M117.97 485.048C117.97 485.599 117.525 486.048 116.97 486.048C116.416 486.048 115.971 485.603 115.971 485.048C115.971 484.494 116.416 484.049 116.97 484.049C117.525 484.049 117.97 484.494 117.97 485.048Z" fill="#EFEFEF"/>
<path d="M124.552 485.048C124.552 485.599 124.107 486.048 123.552 486.048C122.998 486.048 122.553 485.603 122.553 485.048C122.553 484.494 122.998 484.049 123.552 484.049C124.107 484.049 124.552 484.494 124.552 485.048Z" fill="#EFEFEF"/>
<path d="M116.974 492.49C117.526 492.49 117.974 492.043 117.974 491.491C117.974 490.939 117.526 490.491 116.974 490.491C116.422 490.491 115.975 490.939 115.975 491.491C115.975 492.043 116.422 492.49 116.974 492.49Z" fill="#EFEFEF"/>
<path d="M123.556 492.49C124.108 492.49 124.556 492.043 124.556 491.491C124.556 490.939 124.108 490.491 123.556 490.491C123.004 490.491 122.557 490.939 122.557 491.491C122.557 492.043 123.004 492.49 123.556 492.49Z" fill="#EFEFEF"/>
<path d="M131.427 485.048C131.427 485.599 130.982 486.048 130.427 486.048C129.873 486.048 129.428 485.603 129.428 485.048C129.428 484.494 129.873 484.049 130.427 484.049C130.982 484.049 131.427 484.494 131.427 485.048Z" fill="#EFEFEF"/>
<path d="M130.427 492.49C130.979 492.49 131.427 492.043 131.427 491.491C131.427 490.939 130.979 490.491 130.427 490.491C129.875 490.491 129.428 490.939 129.428 491.491C129.428 492.043 129.875 492.49 130.427 492.49Z" fill="#EFEFEF"/>
<path d="M104.515 498.01C104.515 498.561 104.07 499.01 103.515 499.01C102.961 499.01 102.516 498.565 102.516 498.01C102.516 497.456 102.961 497.011 103.515 497.011C104.07 497.011 104.515 497.456 104.515 498.01Z" fill="#EFEFEF"/>
<path d="M111.097 498.01C111.097 498.561 110.652 499.01 110.097 499.01C109.543 499.01 109.098 498.565 109.098 498.01C109.098 497.456 109.543 497.011 110.097 497.011C110.652 497.011 111.097 497.456 111.097 498.01Z" fill="#EFEFEF"/>
<path d="M104.515 504.457C104.515 505.008 104.07 505.456 103.515 505.456C102.961 505.456 102.516 505.011 102.516 504.457C102.516 503.902 102.961 503.457 103.515 503.457C104.07 503.457 104.515 503.902 104.515 504.457Z" fill="#EFEFEF"/>
<path d="M111.097 504.457C111.097 505.008 110.652 505.456 110.097 505.456C109.543 505.456 109.098 505.011 109.098 504.457C109.098 503.902 109.543 503.457 110.097 503.457C110.652 503.457 111.097 503.902 111.097 504.457Z" fill="#EFEFEF"/>
<path d="M116.974 499.01C117.526 499.01 117.974 498.562 117.974 498.01C117.974 497.458 117.526 497.011 116.974 497.011C116.422 497.011 115.975 497.458 115.975 498.01C115.975 498.562 116.422 499.01 116.974 499.01Z" fill="#EFEFEF"/>
<path d="M123.556 499.01C124.108 499.01 124.556 498.562 124.556 498.01C124.556 497.458 124.108 497.011 123.556 497.011C123.004 497.011 122.557 497.458 122.557 498.01C122.557 498.562 123.004 499.01 123.556 499.01Z" fill="#EFEFEF"/>
<path d="M117.97 504.457C117.97 505.008 117.525 505.456 116.97 505.456C116.416 505.456 115.971 505.011 115.971 504.457C115.971 503.902 116.416 503.457 116.97 503.457C117.525 503.457 117.97 503.902 117.97 504.457Z" fill="#EFEFEF"/>
<path d="M124.552 504.457C124.552 505.008 124.107 505.456 123.552 505.456C122.998 505.456 122.553 505.011 122.553 504.457C122.553 503.902 122.998 503.457 123.552 503.457C124.107 503.457 124.552 503.902 124.552 504.457Z" fill="#EFEFEF"/>
<path d="M130.427 499.01C130.979 499.01 131.427 498.562 131.427 498.01C131.427 497.458 130.979 497.011 130.427 497.011C129.875 497.011 129.428 497.458 129.428 498.01C129.428 498.562 129.875 499.01 130.427 499.01Z" fill="#EFEFEF"/>
<path d="M131.427 504.457C131.427 505.008 130.982 505.456 130.427 505.456C129.873 505.456 129.428 505.011 129.428 504.457C129.428 503.902 129.873 503.457 130.427 503.457C130.982 503.457 131.427 503.902 131.427 504.457Z" fill="#EFEFEF"/>
<path d="M64.0675 511.191C64.0675 511.742 63.6225 512.191 63.0679 512.191C62.5134 512.191 62.0684 511.745 62.0684 511.191C62.0684 510.636 62.5134 510.191 63.0679 510.191C63.6225 510.191 64.0675 510.636 64.0675 511.191Z" fill="#EFEFEF"/>
<path d="M70.6495 511.191C70.6495 511.742 70.2045 512.191 69.65 512.191C69.0954 512.191 68.6504 511.745 68.6504 511.191C68.6504 510.636 69.0954 510.191 69.65 510.191C70.2045 510.191 70.6495 510.636 70.6495 511.191Z" fill="#EFEFEF"/>
<path d="M64.0675 517.637C64.0675 518.188 63.6225 518.637 63.0679 518.637C62.5134 518.637 62.0684 518.192 62.0684 517.637C62.0684 517.083 62.5134 516.638 63.0679 516.638C63.6225 516.638 64.0675 517.083 64.0675 517.637Z" fill="#EFEFEF"/>
<path d="M70.6495 517.637C70.6495 518.188 70.2045 518.637 69.65 518.637C69.0954 518.637 68.6504 518.192 68.6504 517.637C68.6504 517.083 69.0954 516.638 69.65 516.638C70.2045 516.638 70.6495 517.083 70.6495 517.637Z" fill="#EFEFEF"/>
<path d="M77.5265 511.191C77.5265 511.742 77.0814 512.191 76.5269 512.191C75.9724 512.191 75.5273 511.745 75.5273 511.191C75.5273 510.636 75.9724 510.191 76.5269 510.191C77.0814 510.191 77.5265 510.636 77.5265 511.191Z" fill="#EFEFEF"/>
<path d="M84.1085 511.191C84.1085 511.742 83.6635 512.191 83.1089 512.191C82.5544 512.191 82.1094 511.745 82.1094 511.191C82.1094 510.636 82.5544 510.191 83.1089 510.191C83.6635 510.191 84.1085 510.636 84.1085 511.191Z" fill="#EFEFEF"/>
<path d="M77.5265 517.637C77.5265 518.188 77.0814 518.637 76.5269 518.637C75.9724 518.637 75.5273 518.192 75.5273 517.637C75.5273 517.083 75.9724 516.638 76.5269 516.638C77.0814 516.638 77.5265 517.083 77.5265 517.637Z" fill="#EFEFEF"/>
<path d="M84.1085 517.637C84.1085 518.188 83.6635 518.637 83.1089 518.637C82.5544 518.637 82.1094 518.192 82.1094 517.637C82.1094 517.083 82.5544 516.638 83.1089 516.638C83.6635 516.638 84.1085 517.083 84.1085 517.637Z" fill="#EFEFEF"/>
<path d="M89.9839 512.191C90.536 512.191 90.9835 511.743 90.9835 511.191C90.9835 510.639 90.536 510.191 89.9839 510.191C89.4319 510.191 88.9844 510.639 88.9844 511.191C88.9844 511.743 89.4319 512.191 89.9839 512.191Z" fill="#EFEFEF"/>
<path d="M96.566 512.191C97.118 512.191 97.5655 511.743 97.5655 511.191C97.5655 510.639 97.118 510.191 96.566 510.191C96.0139 510.191 95.5664 510.639 95.5664 511.191C95.5664 511.743 96.0139 512.191 96.566 512.191Z" fill="#EFEFEF"/>
<path d="M90.9796 517.637C90.9796 518.188 90.5346 518.637 89.98 518.637C89.4255 518.637 88.9805 518.192 88.9805 517.637C88.9805 517.083 89.4255 516.638 89.98 516.638C90.5346 516.638 90.9796 517.083 90.9796 517.637Z" fill="#EFEFEF"/>
<path d="M97.5616 517.637C97.5616 518.188 97.1166 518.637 96.5621 518.637C96.0075 518.637 95.5625 518.192 95.5625 517.637C95.5625 517.083 96.0075 516.638 96.5621 516.638C97.1166 516.638 97.5616 517.083 97.5616 517.637Z" fill="#EFEFEF"/>
<path d="M64.0675 524.153C64.0675 524.704 63.6225 525.152 63.0679 525.152C62.5134 525.152 62.0684 524.707 62.0684 524.153C62.0684 523.598 62.5134 523.153 63.0679 523.153C63.6225 523.153 64.0675 523.598 64.0675 524.153Z" fill="#EFEFEF"/>
<path d="M70.6495 524.153C70.6495 524.704 70.2045 525.152 69.65 525.152C69.0954 525.152 68.6504 524.707 68.6504 524.153C68.6504 523.598 69.0954 523.153 69.65 523.153C70.2045 523.153 70.6495 523.598 70.6495 524.153Z" fill="#EFEFEF"/>
<path d="M64.0675 530.599C64.0675 531.15 63.6225 531.599 63.0679 531.599C62.5134 531.599 62.0684 531.154 62.0684 530.599C62.0684 530.045 62.5134 529.6 63.0679 529.6C63.6225 529.6 64.0675 530.045 64.0675 530.599Z" fill="#EFEFEF"/>
<path d="M70.6495 530.599C70.6495 531.15 70.2045 531.599 69.65 531.599C69.0954 531.599 68.6504 531.154 68.6504 530.599C68.6504 530.045 69.0954 529.6 69.65 529.6C70.2045 529.6 70.6495 530.045 70.6495 530.599Z" fill="#EFEFEF"/>
<path d="M77.5265 524.153C77.5265 524.704 77.0814 525.152 76.5269 525.152C75.9724 525.152 75.5273 524.707 75.5273 524.153C75.5273 523.598 75.9724 523.153 76.5269 523.153C77.0814 523.153 77.5265 523.598 77.5265 524.153Z" fill="#EFEFEF"/>
<path d="M84.1085 524.153C84.1085 524.704 83.6635 525.152 83.1089 525.152C82.5544 525.152 82.1094 524.707 82.1094 524.153C82.1094 523.598 82.5544 523.153 83.1089 523.153C83.6635 523.153 84.1085 523.598 84.1085 524.153Z" fill="#EFEFEF"/>
<path d="M77.5265 530.599C77.5265 531.15 77.0814 531.599 76.5269 531.599C75.9724 531.599 75.5273 531.154 75.5273 530.599C75.5273 530.045 75.9724 529.6 76.5269 529.6C77.0814 529.6 77.5265 530.045 77.5265 530.599Z" fill="#EFEFEF"/>
<path d="M84.1085 530.599C84.1085 531.15 83.6635 531.599 83.1089 531.599C82.5544 531.599 82.1094 531.154 82.1094 530.599C82.1094 530.045 82.5544 529.6 83.1089 529.6C83.6635 529.6 84.1085 530.045 84.1085 530.599Z" fill="#EFEFEF"/>
<path d="M90.9796 524.153C90.9796 524.704 90.5346 525.152 89.98 525.152C89.4255 525.152 88.9805 524.707 88.9805 524.153C88.9805 523.598 89.4255 523.153 89.98 523.153C90.5346 523.153 90.9796 523.598 90.9796 524.153Z" fill="#EFEFEF"/>
<path d="M97.5616 524.153C97.5616 524.704 97.1166 525.152 96.5621 525.152C96.0075 525.152 95.5625 524.707 95.5625 524.153C95.5625 523.598 96.0075 523.153 96.5621 523.153C97.1166 523.153 97.5616 523.598 97.5616 524.153Z" fill="#EFEFEF"/>
<path d="M90.9796 530.599C90.9796 531.15 90.5346 531.599 89.98 531.599C89.4255 531.599 88.9805 531.154 88.9805 530.599C88.9805 530.045 89.4255 529.6 89.98 529.6C90.5346 529.6 90.9796 530.045 90.9796 530.599Z" fill="#EFEFEF"/>
<path d="M97.5616 530.599C97.5616 531.15 97.1166 531.599 96.5621 531.599C96.0075 531.599 95.5625 531.154 95.5625 530.599C95.5625 530.045 96.0075 529.6 96.5621 529.6C97.1166 529.6 97.5616 530.045 97.5616 530.599Z" fill="#EFEFEF"/>
<path d="M64.0675 537.122C64.0675 537.673 63.6225 538.121 63.0679 538.121C62.5134 538.121 62.0684 537.676 62.0684 537.122C62.0684 536.567 62.5134 536.122 63.0679 536.122C63.6225 536.122 64.0675 536.567 64.0675 537.122Z" fill="#EFEFEF"/>
<path d="M70.6495 537.122C70.6495 537.673 70.2045 538.121 69.65 538.121C69.0954 538.121 68.6504 537.676 68.6504 537.122C68.6504 536.567 69.0954 536.122 69.65 536.122C70.2045 536.122 70.6495 536.567 70.6495 537.122Z" fill="#EFEFEF"/>
<path d="M77.5265 537.122C77.5265 537.673 77.0814 538.121 76.5269 538.121C75.9724 538.121 75.5273 537.676 75.5273 537.122C75.5273 536.567 75.9724 536.122 76.5269 536.122C77.0814 536.122 77.5265 536.567 77.5265 537.122Z" fill="#EFEFEF"/>
<path d="M84.1085 537.122C84.1085 537.673 83.6635 538.121 83.1089 538.121C82.5544 538.121 82.1094 537.676 82.1094 537.122C82.1094 536.567 82.5544 536.122 83.1089 536.122C83.6635 536.122 84.1085 536.567 84.1085 537.122Z" fill="#EFEFEF"/>
<path d="M90.9796 537.122C90.9796 537.673 90.5346 538.121 89.98 538.121C89.4255 538.121 88.9805 537.676 88.9805 537.122C88.9805 536.567 89.4255 536.122 89.98 536.122C90.5346 536.122 90.9796 536.567 90.9796 537.122Z" fill="#EFEFEF"/>
<path d="M97.5616 537.122C97.5616 537.673 97.1166 538.121 96.5621 538.121C96.0075 538.121 95.5625 537.676 95.5625 537.122C95.5625 536.567 96.0075 536.122 96.5621 536.122C97.1166 536.122 97.5616 536.567 97.5616 537.122Z" fill="#EFEFEF"/>
<path d="M104.515 511.191C104.515 511.742 104.07 512.191 103.515 512.191C102.961 512.191 102.516 511.745 102.516 511.191C102.516 510.636 102.961 510.191 103.515 510.191C104.07 510.191 104.515 510.636 104.515 511.191Z" fill="#EFEFEF"/>
<path d="M111.097 511.191C111.097 511.742 110.652 512.191 110.097 512.191C109.543 512.191 109.098 511.745 109.098 511.191C109.098 510.636 109.543 510.191 110.097 510.191C110.652 510.191 111.097 510.636 111.097 511.191Z" fill="#EFEFEF"/>
<path d="M104.515 517.637C104.515 518.188 104.07 518.637 103.515 518.637C102.961 518.637 102.516 518.192 102.516 517.637C102.516 517.083 102.961 516.638 103.515 516.638C104.07 516.638 104.515 517.083 104.515 517.637Z" fill="#EFEFEF"/>
<path d="M111.097 517.637C111.097 518.188 110.652 518.637 110.097 518.637C109.543 518.637 109.098 518.192 109.098 517.637C109.098 517.083 109.543 516.638 110.097 516.638C110.652 516.638 111.097 517.083 111.097 517.637Z" fill="#EFEFEF"/>
<path d="M116.972 512.191C117.524 512.191 117.972 511.743 117.972 511.191C117.972 510.639 117.524 510.191 116.972 510.191C116.42 510.191 115.973 510.639 115.973 511.191C115.973 511.743 116.42 512.191 116.972 512.191Z" fill="#EFEFEF"/>
<path d="M123.554 512.191C124.106 512.191 124.554 511.743 124.554 511.191C124.554 510.639 124.106 510.191 123.554 510.191C123.002 510.191 122.555 510.639 122.555 511.191C122.555 511.743 123.002 512.191 123.554 512.191Z" fill="#EFEFEF"/>
<path d="M117.968 517.637C117.968 518.188 117.523 518.637 116.968 518.637C116.414 518.637 115.969 518.192 115.969 517.637C115.969 517.083 116.414 516.638 116.968 516.638C117.523 516.638 117.968 517.083 117.968 517.637Z" fill="#EFEFEF"/>
<path d="M124.55 517.637C124.55 518.188 124.105 518.637 123.55 518.637C122.996 518.637 122.551 518.192 122.551 517.637C122.551 517.083 122.996 516.638 123.55 516.638C124.105 516.638 124.55 517.083 124.55 517.637Z" fill="#EFEFEF"/>
<path d="M130.427 512.191C130.979 512.191 131.427 511.743 131.427 511.191C131.427 510.639 130.979 510.191 130.427 510.191C129.875 510.191 129.428 510.639 129.428 511.191C129.428 511.743 129.875 512.191 130.427 512.191Z" fill="#EFEFEF"/>
<path d="M131.427 517.637C131.427 518.188 130.982 518.637 130.427 518.637C129.873 518.637 129.428 518.192 129.428 517.637C129.428 517.083 129.873 516.638 130.427 516.638C130.982 516.638 131.427 517.083 131.427 517.637Z" fill="#EFEFEF"/>
<path d="M104.515 524.153C104.515 524.704 104.07 525.152 103.515 525.152C102.961 525.152 102.516 524.707 102.516 524.153C102.516 523.598 102.961 523.153 103.515 523.153C104.07 523.153 104.515 523.598 104.515 524.153Z" fill="#EFEFEF"/>
<path d="M111.097 524.153C111.097 524.704 110.652 525.152 110.097 525.152C109.543 525.152 109.098 524.707 109.098 524.153C109.098 523.598 109.543 523.153 110.097 523.153C110.652 523.153 111.097 523.598 111.097 524.153Z" fill="#EFEFEF"/>
<path d="M104.515 530.599C104.515 531.15 104.07 531.599 103.515 531.599C102.961 531.599 102.516 531.154 102.516 530.599C102.516 530.045 102.961 529.6 103.515 529.6C104.07 529.6 104.515 530.045 104.515 530.599Z" fill="#EFEFEF"/>
<path d="M111.097 530.599C111.097 531.15 110.652 531.599 110.097 531.599C109.543 531.599 109.098 531.154 109.098 530.599C109.098 530.045 109.543 529.6 110.097 529.6C110.652 529.6 111.097 530.045 111.097 530.599Z" fill="#EFEFEF"/>
<path d="M117.968 524.153C117.968 524.704 117.523 525.152 116.968 525.152C116.414 525.152 115.969 524.707 115.969 524.153C115.969 523.598 116.414 523.153 116.968 523.153C117.523 523.153 117.968 523.598 117.968 524.153Z" fill="#EFEFEF"/>
<path d="M124.55 524.153C124.55 524.704 124.105 525.152 123.55 525.152C122.996 525.152 122.551 524.707 122.551 524.153C122.551 523.598 122.996 523.153 123.55 523.153C124.105 523.153 124.55 523.598 124.55 524.153Z" fill="#EFEFEF"/>
<path d="M117.968 530.599C117.968 531.15 117.523 531.599 116.968 531.599C116.414 531.599 115.969 531.154 115.969 530.599C115.969 530.045 116.414 529.6 116.968 529.6C117.523 529.6 117.968 530.045 117.968 530.599Z" fill="#EFEFEF"/>
<path d="M124.55 530.599C124.55 531.15 124.105 531.599 123.55 531.599C122.996 531.599 122.551 531.154 122.551 530.599C122.551 530.045 122.996 529.6 123.55 529.6C124.105 529.6 124.55 530.045 124.55 530.599Z" fill="#EFEFEF"/>
<path d="M131.427 524.153C131.427 524.704 130.982 525.152 130.427 525.152C129.873 525.152 129.428 524.707 129.428 524.153C129.428 523.598 129.873 523.153 130.427 523.153C130.982 523.153 131.427 523.598 131.427 524.153Z" fill="#EFEFEF"/>
<path d="M131.427 530.599C131.427 531.15 130.982 531.599 130.427 531.599C129.873 531.599 129.428 531.154 129.428 530.599C129.428 530.045 129.873 529.6 130.427 529.6C130.982 529.6 131.427 530.045 131.427 530.599Z" fill="#EFEFEF"/>
<path d="M104.515 537.122C104.515 537.673 104.07 538.121 103.515 538.121C102.961 538.121 102.516 537.676 102.516 537.122C102.516 536.567 102.961 536.122 103.515 536.122C104.07 536.122 104.515 536.567 104.515 537.122Z" fill="#EFEFEF"/>
<path d="M111.097 537.122C111.097 537.673 110.652 538.121 110.097 538.121C109.543 538.121 109.098 537.676 109.098 537.122C109.098 536.567 109.543 536.122 110.097 536.122C110.652 536.122 111.097 536.567 111.097 537.122Z" fill="#EFEFEF"/>
<path d="M117.968 537.122C117.968 537.673 117.523 538.121 116.968 538.121C116.414 538.121 115.969 537.676 115.969 537.122C115.969 536.567 116.414 536.122 116.968 536.122C117.523 536.122 117.968 536.567 117.968 537.122Z" fill="#EFEFEF"/>
<path d="M124.55 537.122C124.55 537.673 124.105 538.121 123.55 538.121C122.996 538.121 122.551 537.676 122.551 537.122C122.551 536.567 122.996 536.122 123.55 536.122C124.105 536.122 124.55 536.567 124.55 537.122Z" fill="#EFEFEF"/>
<path d="M131.427 537.122C131.427 537.673 130.982 538.121 130.427 538.121C129.873 538.121 129.428 537.676 129.428 537.122C129.428 536.567 129.873 536.122 130.427 536.122C130.982 536.122 131.427 536.567 131.427 537.122Z" fill="#EFEFEF"/>
</g>
<path d="M46.2326 433.339C51.6379 433.339 56.0199 428.957 56.0199 423.552C56.0199 418.147 51.6379 413.765 46.2326 413.765C40.8272 413.765 36.4453 418.147 36.4453 423.552C36.4453 428.957 40.8272 433.339 46.2326 433.339Z" fill="#F18F01"/>
<path d="M224.545 162.02L222.358 149.863C222.047 148.132 222.832 146.391 224.333 145.476L237.451 137.483C240.322 135.731 244.024 136.194 246.38 138.595C247.701 139.941 253.101 144.706 253.101 144.808C253.101 144.808 257.77 141.184 260.914 144.769C263.044 147.2 260.585 151.597 260.487 151.297C261.716 154.147 260.674 157.471 258.039 159.106L253.589 161.868L224.545 162.016V162.02Z" fill="#E35300"/>
<path d="M47.9355 192.89L58.0407 181.047C58.0407 181.047 62.3886 191.152 62.2791 191.477C62.1696 191.802 47.9355 192.89 47.9355 192.89Z" fill="#131B20"/>
<path d="M318.334 456.616L328.51 444.484L320.775 439.843L318.334 456.616Z" fill="#131B20"/>
<path d="M166.138 492.053L47.0873 200.869C45.0776 195.952 48.0375 190.421 53.2402 189.361L187.401 162.098C191.304 161.306 195.228 163.337 196.835 166.979L319.672 445.257C322.374 451.375 319.05 458.471 312.619 460.314L179.38 498.481C173.972 500.032 168.264 497.259 166.135 492.053H166.138Z" fill="#131B20"/>
<path d="M176.011 480.677L56.9604 189.493C54.9507 184.576 57.9105 179.045 63.1132 177.985L197.274 150.722C201.177 149.93 205.101 151.961 206.708 155.603L329.545 433.881C332.247 439.999 328.923 447.095 322.492 448.938L189.253 487.105C183.845 488.656 178.137 485.883 176.008 480.677H176.011Z" fill="#131B20"/>
<path d="M317.457 450.452L189.015 487.245C183.607 488.796 177.9 486.023 175.77 480.817L57.0475 190.438C56.5706 189.272 56.281 188.036 56.2492 186.779C56.2139 185.366 56.4682 183.642 57.5349 182.138" stroke="white" stroke-width="0.706407" stroke-miterlimit="10" stroke-linecap="round"/>
<path d="M238.212 331.024L291.895 449.485L189.12 477.681C187.492 478.127 185.786 477.293 185.139 475.732L125.936 332.646L238.215 331.024H238.212Z" fill="#EFEFEF"/>
<path d="M283.742 251.387L292.473 271.131L318.67 237.34L346.005 251.768L320.119 305.992C313.888 319.043 300.767 327.403 286.303 327.534C274.626 327.64 263.553 322.345 256.298 313.194L235.904 287.456C235.904 287.456 249.192 250.627 283.742 251.387Z" fill="#FFCBA2"/>
<path d="M263.788 274.764L230.173 279.108L238.209 331.022L222.555 365.703L121.404 306.566L164.506 230.338L186.471 183.909L252.595 210.124C266.334 215.514 276.111 227.883 278.17 242.499L263.788 274.76V274.764Z" fill="white"/>
<path d="M196.158 225.952C195.505 226.797 194.795 227.609 194.021 228.379C192.782 229.633 191.397 230.788 189.878 231.819L173.108 243.221L166.92 247.427L158.952 252.845L149.758 259.083L160.167 267.154L164.808 270.749L156.214 292.87L153.912 292.408L121.399 285.87C111.495 282.878 104.491 275.924 100.963 267.592C97.3673 259.104 97.3744 249.2 101.585 240.596C103.329 237.025 105.805 233.684 109.044 230.756L126.81 214.717L126.976 214.562L155.858 188.499C161.138 183.723 167.757 181.371 174.366 181.371C178.484 181.371 182.595 182.289 186.371 184.119C189.426 185.592 192.259 187.655 194.703 190.304C195.427 191.091 196.098 191.911 196.709 192.755C204.056 202.832 203.576 216.444 196.158 225.952Z" fill="#FFCBA2"/>
<path d="M191.407 233.434L159.107 252.688L126.969 214.559L156.016 188.341C161.293 183.566 167.912 181.217 174.521 181.217C181.977 181.217 189.408 184.23 194.858 190.149C206.252 202.564 205.345 223.972 191.404 233.434H191.407Z" fill="white"/>
<path d="M199.285 188.517L198.035 263.728L209.896 264.664L211.457 193.511L199.285 188.517Z" fill="#EFEFEF"/>
<path d="M235.606 203.013L234.359 278.227L243.995 278.429L244.987 206.69L235.606 203.013Z" fill="#EFEFEF"/>
<path d="M211.455 193.844L225.806 166.181L243.717 173.284L235.561 203.345C234.576 209.158 224.015 221.92 211.455 193.844Z" fill="#FFCBA2"/>
<path d="M234.409 148.698L225.805 174.242L244.351 181.902C246.637 182.846 249.24 181.627 249.978 179.268L256.042 159.891C257.166 156.306 254.905 152.548 251.214 151.852L234.409 148.694V148.698Z" fill="#FFCBA2"/>
<path d="M231.968 165.438C230.322 167.861 227.19 168.603 224.971 167.095C222.753 165.587 222.294 162.401 223.94 159.978C225.586 157.555 228.719 156.813 230.937 158.321C233.155 159.829 233.614 163.015 231.968 165.438Z" fill="#FFCBA2"/>
<path d="M241.738 180.652L234.932 177.607L239.654 188.256L241.738 180.652Z" fill="#131B20"/>
<path d="M244.639 158.361C244.424 159.124 243.799 159.615 243.241 159.459C242.686 159.3 242.411 158.555 242.626 157.792C242.842 157.029 243.467 156.538 244.025 156.694C244.579 156.853 244.855 157.598 244.639 158.361Z" fill="#131B20"/>
<path d="M253.162 160.791C252.887 161.536 252.223 161.974 251.682 161.773C251.142 161.571 250.926 160.805 251.202 160.063C251.477 159.318 252.141 158.88 252.682 159.081C253.222 159.282 253.438 160.049 253.162 160.791Z" fill="#131B20"/>
<path d="M255.209 159.146C254.859 159.661 254.04 159.064 252.991 158.351C251.942 157.638 251.062 157.076 251.412 156.56C251.762 156.045 252.895 156.207 253.944 156.921C254.993 157.634 255.562 158.63 255.212 159.146H255.209Z" fill="#131B20"/>
<path d="M241.383 155.154C241.323 155.772 242.334 155.839 243.598 155.96C244.862 156.08 245.897 156.21 245.957 155.592C246.017 154.974 245.039 154.374 243.778 154.254C242.514 154.134 241.443 154.536 241.383 155.158V155.154Z" fill="#131B20"/>
<path d="M248.436 158.792L248.867 164.21C248.913 164.796 248.383 165.249 247.797 165.118L246.43 164.814" stroke="#131B20" stroke-width="0.706407" stroke-miterlimit="10" stroke-linecap="round"/>
<path d="M226.418 160.483C226.499 160.589 228.195 162.663 228.721 163.302C228.792 163.39 228.739 163.514 228.629 163.535L225.662 164.1" stroke="#131B20" stroke-width="0.706407" stroke-miterlimit="10" stroke-linecap="round"/>
<path d="M252.803 170.341L249.885 179.411C249.119 181.795 246.463 182.992 244.171 181.989L231.512 176.462C231.512 176.462 237.7 160.017 252.806 170.341H252.803Z" fill="#E35300"/>
<path d="M230.201 146.882L231.423 176.396L234.062 176.883L237.527 144.247L230.201 146.882Z" fill="#E35300"/>
<path d="M166.668 247.294L173.495 242.978" stroke="#131B20" stroke-width="0.706407" stroke-miterlimit="10" stroke-linecap="round"/>
<path d="M276.4 234.999L292.464 270.828L252.615 276.281L276.4 234.999Z" fill="white"/>
<path d="M314.666 243.751L318.318 216.604C318.537 214.968 319.763 213.651 321.377 213.315C323.457 212.881 325.499 214.198 325.965 216.272L328.618 228.104L337.663 228.676C344.296 229.096 349.245 234.956 348.549 241.564L346.744 258.723C346.352 262.435 343.35 265.332 339.627 265.589L330.5 266.218L314.67 243.747L314.666 243.751Z" fill="#FFCBA2"/>
<path d="M342.648 249.524C342.344 249.524 333.656 249.425 329.604 249.354C327.411 249.315 325.581 251.014 325.451 253.204C325.316 255.472 327.058 257.414 329.325 257.531" stroke="#131B20" stroke-width="0.706407" stroke-miterlimit="10" stroke-linecap="round"/>
<path d="M343.426 240.28C343.073 240.28 333.24 240.167 328.557 240.086C326.021 240.043 323.905 242.007 323.756 244.536C323.601 247.157 325.611 249.4 328.232 249.537" stroke="#131B20" stroke-width="0.706407" stroke-miterlimit="10" stroke-linecap="round"/>
<path d="M337.319 230.75C337.319 230.75 334.211 230.637 329.527 230.555C326.991 230.513 324.876 232.473 324.727 235.006C324.572 237.626 326.582 239.869 329.202 240.007" stroke="#131B20" stroke-width="0.706407" stroke-miterlimit="10" stroke-linecap="round"/>
<path d="M340.843 257.756C340.564 257.756 335.252 257.664 331.526 257.6C329.509 257.565 327.828 259.126 327.708 261.139C327.584 263.223 329.184 265.01 331.268 265.116L340.084 265.572" stroke="#131B20" stroke-width="0.706407" stroke-miterlimit="10" stroke-linecap="round"/>
<path d="M199.517 257.868L243.999 259.747L244.027 300.577L242.855 379.063L113.307 324.083L157.87 264.53L199.517 257.868Z" fill="#EFEFEF"/>
<path d="M280.664 284.246L291.92 271.337C291.966 271.277 291.917 271.189 291.839 271.199L277.156 273.347" stroke="#131B20" stroke-width="0.706407" stroke-miterlimit="10" stroke-linecap="round"/>
<path d="M209.547 346.382L200.031 363.982L199.865 476.961" stroke="#131B20" stroke-width="0.706407" stroke-miterlimit="10" stroke-linecap="round"/>
<path d="M233.346 265.809H176.148V299.434H233.346V265.809Z" stroke="#131B20" stroke-width="0.706407" stroke-miterlimit="10" stroke-linecap="round"/>
<path d="M205.285 296.915L207.256 285.337L200.273 287.725L200.93 296.258L205.285 296.915Z" fill="#FFCBA2"/>
<path d="M242.037 262.721L225.666 273.751L225.641 273.716C222.886 269.622 217.334 268.545 213.244 271.3C209.15 274.055 208.062 279.611 210.825 283.705L210.842 283.733L90.9226 364.521C78.1331 373.132 60.7837 369.749 52.1656 356.959C43.5474 344.17 46.9311 326.82 59.7206 318.202L179.644 237.414C182.462 241.292 187.863 242.267 191.868 239.568C195.873 236.87 196.986 231.505 194.45 227.436L210.832 216.405L223.558 235.298L230.088 244.994L242.03 262.717L242.037 262.721Z" fill="#F18F01"/>
<path d="M344.867 167.815L337.626 172.682L337.538 172.746L318.154 185.779L267.278 219.994L244.592 235.248L242.487 236.661L234.96 241.726L231.001 244.386L230.097 244.997L223.562 235.301L226.208 233.525L235.197 227.478L237.694 225.8L244.787 221.028L257.534 212.453L310.465 176.857L331.021 163.032L331.088 162.983L338.332 158.112L344.867 167.815Z" fill="#D6D6D6"/>
<path d="M378.236 145.143L355.606 169.546L341.782 178.856L337.624 172.682L331.087 162.983L327.258 157.297L341.079 147.986L372.687 136.906L378.236 145.143Z" fill="#D6D6D6"/>
<mask id="mask2_1_25041" style="mask-type:luminance" maskUnits="userSpaceOnUse" x="47" y="216" width="195" height="154">
<path d="M212.986 271.477C208.892 274.232 207.808 279.788 210.563 283.878L210.584 283.91L90.6642 364.695C77.8747 373.31 60.5254 369.926 51.9072 357.133C43.2926 344.343 46.6763 326.994 59.4622 318.379L179.385 237.591C182.204 241.469 187.604 242.448 191.61 239.749C195.615 237.051 196.731 231.682 194.195 227.613L210.573 216.579L241.775 262.895L225.401 273.925L225.379 273.893C222.624 269.8 217.072 268.719 212.982 271.477H212.986Z" fill="white"/>
</mask>
<g mask="url(#mask2_1_25041)">
<path d="M71.6453 344.379C69.0563 340.537 70.0736 335.32 73.9164 332.731L171.054 267.293C174.897 264.704 180.114 265.721 182.703 269.564C185.292 273.407 184.275 278.624 180.432 281.213L83.294 346.65C79.4511 349.239 74.2343 348.222 71.6453 344.379Z" stroke="#131B20" stroke-width="0.706407" stroke-miterlimit="10" stroke-linecap="round"/>
<path d="M55.1473 319.884C52.5583 316.041 53.5755 310.825 57.4183 308.236L154.556 242.798C158.399 240.209 163.616 241.226 166.205 245.069C168.794 248.912 167.777 254.128 163.934 256.717L66.7959 322.155C62.953 324.744 57.7362 323.727 55.1473 319.884Z" stroke="#131B20" stroke-width="0.706407" stroke-miterlimit="10" stroke-linecap="round"/>
<path d="M87.2137 367.483C84.6247 363.64 85.6419 358.423 89.4848 355.834L186.623 290.396C190.466 287.807 195.682 288.825 198.271 292.667C200.86 296.51 199.843 301.727 196 304.316L98.8623 369.754C95.0195 372.343 89.8026 371.326 87.2137 367.483Z" stroke="#131B20" stroke-width="0.706407" stroke-miterlimit="10" stroke-linecap="round"/>
<path d="M201.176 213.782L242.967 275.815" stroke="#131B20" stroke-width="0.706407" stroke-miterlimit="10" stroke-linecap="round"/>
</g>
<path d="M155.984 249.731L179.126 274.749L190.577 277.423L188.899 283.243L204.454 293.137C206.1 295.772 205.161 299.251 202.413 300.699L184.269 310.26C181.408 311.768 178.021 311.885 175.064 310.574C159.961 303.881 113.473 283.197 113.473 282.198C113.473 281.004 155.984 249.731 155.984 249.731Z" fill="#FFCBA2"/>
<path d="M174.854 274.382L199.451 275.021C200.828 275.113 202.036 275.968 202.584 277.236C203.467 279.281 202.343 281.637 200.199 282.241L187.947 285.684L174.854 274.382Z" fill="#FFCBA2"/>
<path d="M190.705 297.403L198.733 301.9" stroke="#131B20" stroke-width="0.706407" stroke-miterlimit="10" stroke-linecap="round"/>
<path d="M185.678 302.673L191.686 305.944" stroke="#131B20" stroke-width="0.706407" stroke-miterlimit="10" stroke-linecap="round"/>
<path d="M180.045 306.63L184.608 309.215" stroke="#131B20" stroke-width="0.706407" stroke-miterlimit="10" stroke-linecap="round"/>
<path d="M141.531 250.786C142.227 250.959 159.11 252.686 159.11 252.686L147.617 239.317" stroke="#131B20" stroke-width="0.706407" stroke-miterlimit="10" stroke-linecap="round"/>
<path d="M149.162 173.63L125.999 179.136C124.611 179.465 123.219 178.61 122.891 177.222C122.562 175.834 123.417 174.442 124.805 174.114L147.968 168.607C149.356 168.279 150.748 169.134 151.076 170.522C151.405 171.91 150.55 173.301 149.162 173.63Z" stroke="white" stroke-width="0.706407" stroke-miterlimit="10" stroke-linecap="round"/>
<path d="M241.451 153.012C242.605 150.226 241.282 147.032 238.496 145.878C235.709 144.724 232.515 146.047 231.361 148.833C230.207 151.619 231.53 154.814 234.316 155.968C237.103 157.122 240.297 155.799 241.451 153.012Z" fill="#E35300"/>
<path d="M242.398 169.325L249.47 171.112C249.47 171.112 245.408 178.102 242.398 169.325Z" fill="white"/>
<path d="M378.292 145.147L355.662 169.55L341.838 178.861L337.681 172.687L337.592 172.747L318.205 185.783C315.309 183.205 312.713 180.221 310.516 176.858L331.072 163.034L331.139 162.984L327.307 157.298L341.131 147.987L372.739 136.907L378.288 145.144L378.292 145.147Z" fill="#D6D6D6"/>
<path d="M330.996 162.994L337.576 172.792" stroke="#131B20" stroke-width="0.706407" stroke-miterlimit="10" stroke-linecap="round"/>
<path d="M134.432 207.555L166.216 244.888" stroke="#131B20" stroke-width="0.706407" stroke-miterlimit="10" stroke-linecap="round"/>
<path d="M244.459 270.263L288.722 264.428" stroke="#131B20" stroke-width="0.706407" stroke-miterlimit="10" stroke-linecap="round"/>
<path d="M237.09 370.702L261.041 370.582L278.309 406.556C279.492 409.018 277.698 411.871 274.964 411.871H259.695C256.686 411.871 253.976 410.038 252.857 407.245L237.09 370.706V370.702Z" fill="#EFEFEF"/>
<path d="M274.964 412.063H259.695C256.686 412.063 253.976 410.23 252.857 407.436L237.09 370.897L253.754 370.812" stroke="#131B20" stroke-width="0.706407" stroke-miterlimit="10" stroke-linecap="round"/>
<path d="M240.717 378.661H264.24" stroke="#131B20" stroke-width="0.706407" stroke-miterlimit="10" stroke-linecap="round"/>
<path d="M241.055 311.162H190.162" stroke="#131B20" stroke-width="0.706407" stroke-miterlimit="10" stroke-linecap="round"/>
<path d="M73.5633 227.441C73.5633 228.532 72.6768 229.419 71.5854 229.419C70.494 229.419 69.6074 228.532 69.6074 227.441C69.6074 226.349 70.494 225.463 71.5854 225.463C72.6768 225.463 73.5633 226.349 73.5633 227.441Z" fill="white"/>
<path d="M84.6283 229.419C85.7207 229.419 86.6063 228.533 86.6063 227.441C86.6063 226.348 85.7207 225.463 84.6283 225.463C83.5359 225.463 82.6504 226.348 82.6504 227.441C82.6504 228.533 83.5359 229.419 84.6283 229.419Z" fill="white"/>
<path d="M73.5633 240.212C73.5633 241.304 72.6768 242.19 71.5854 242.19C70.494 242.19 69.6074 241.304 69.6074 240.212C69.6074 239.121 70.494 238.234 71.5854 238.234C72.6768 238.234 73.5633 239.121 73.5633 240.212Z" fill="white"/>
<path d="M86.6063 240.212C86.6063 241.304 85.7197 242.19 84.6283 242.19C83.5369 242.19 82.6504 241.304 82.6504 240.212C82.6504 239.121 83.5369 238.234 84.6283 238.234C85.7197 238.234 86.6063 239.121 86.6063 240.212Z" fill="white"/>
<path d="M368.133 436.437C373.538 436.437 377.92 432.055 377.92 426.65C377.92 421.244 373.538 416.862 368.133 416.862C362.728 416.862 358.346 421.244 358.346 426.65C358.346 432.055 362.728 436.437 368.133 436.437Z" fill="#F18F01"/>
<path d="M373.521 92.8837C381.21 92.8837 387.444 86.6496 387.444 78.9604C387.444 71.2711 381.21 65.0371 373.521 65.0371C365.832 65.0371 359.598 71.2711 359.598 78.9604C359.598 86.6496 365.832 92.8837 373.521 92.8837Z" stroke="#131B20" stroke-width="0.706407" stroke-miterlimit="10" stroke-linecap="round"/>
<path d="M340.684 66.1074V77.9645" stroke="white" stroke-width="0.706407" stroke-miterlimit="10" stroke-linecap="round"/>
<path d="M346.574 72.0342H334.717" stroke="white" stroke-width="0.706407" stroke-miterlimit="10" stroke-linecap="round"/>
<path d="M371.623 327.089C374.17 327.089 376.235 325.024 376.235 322.476C376.235 319.929 374.17 317.863 371.623 317.863C369.075 317.863 367.01 319.929 367.01 322.476C367.01 325.024 369.075 327.089 371.623 327.089Z" stroke="white" stroke-width="0.706407" stroke-miterlimit="10" stroke-linecap="round"/>
<path d="M202.744 248.349C205.291 248.349 207.357 246.283 207.357 243.736C207.357 241.188 205.291 239.123 202.744 239.123C200.196 239.123 198.131 241.188 198.131 243.736C198.131 246.283 200.196 248.349 202.744 248.349Z" stroke="white" stroke-width="0.706407" stroke-miterlimit="10" stroke-linecap="round"/>
<path d="M110.112 10.295C112.457 9.29914 113.55 6.59093 112.555 4.24603C111.559 1.90113 108.85 0.807491 106.506 1.80333C104.161 2.79916 103.067 5.50737 104.063 7.85227C105.059 10.1972 107.767 11.2908 110.112 10.295Z" stroke="white" stroke-width="0.706407" stroke-miterlimit="10" stroke-linecap="round"/>
<path d="M84.1772 6.32422H74.895L70.2539 14.3631L74.895 22.402H84.1772L88.8183 14.3631L84.1772 6.32422Z" stroke="#131B20" stroke-width="0.706407" stroke-miterlimit="10" stroke-linecap="round"/>
<path d="M352.551 53.6951C364.473 53.6951 374.138 44.0299 374.138 32.1073C374.138 20.1847 364.473 10.5195 352.551 10.5195C340.628 10.5195 330.963 20.1847 330.963 32.1073C330.963 44.0299 340.628 53.6951 352.551 53.6951Z" stroke="#F18F01" stroke-width="4.23844" stroke-miterlimit="10"/>
</svg>
