<svg width="50" height="50" viewBox="0 0 50 50" fill="none" xmlns="http://www.w3.org/2000/svg">
<rect width="50" height="50" rx="25" fill="#FF9800" fill-opacity="0.08"/>
<path d="M34.4406 33.0593L33.0601 34.4398C32.8779 34.6209 32.6315 34.7226 32.3746 34.7226C32.1178 34.7226 31.8714 34.6209 31.6892 34.4398L20.1392 22.9093C19.8231 23.0009 19.4961 23.0499 19.167 23.0551C18.548 23.0547 17.938 22.9065 17.3878 22.6228C16.8376 22.3392 16.3631 21.9283 16.0036 21.4243C15.6442 20.9204 15.4103 20.3379 15.3213 19.7253C15.2323 19.1127 15.2908 18.4878 15.492 17.9023L17.9614 20.3718L18.4767 19.8565L19.8573 18.476L20.3726 17.9607L17.9031 15.4912C18.4885 15.2901 19.1135 15.2315 19.7261 15.3205C20.3387 15.4095 20.9211 15.6434 21.4251 16.0029C21.9291 16.3623 22.34 16.8369 22.6236 17.3871C22.9072 17.9373 23.0554 18.5472 23.0559 19.1662C23.0507 19.4953 23.0016 19.8223 22.9101 20.1385L34.4406 31.6885C34.6217 31.8706 34.7233 32.117 34.7233 32.3739C34.7233 32.6307 34.6217 32.8771 34.4406 33.0593ZM15.5601 31.6885C15.379 31.8706 15.2773 32.117 15.2773 32.3739C15.2773 32.6307 15.379 32.8771 15.5601 33.0593L16.9406 34.4398C17.1228 34.6209 17.3692 34.7226 17.626 34.7226C17.8829 34.7226 18.1293 34.6209 18.3114 34.4398L23.6295 29.1315L20.8781 26.3801L15.5601 31.6885ZM32.7781 15.2773L28.8892 17.2218V19.1662L26.7795 21.276L28.7239 23.2204L30.8337 21.1107H32.7781L34.7226 17.2218L32.7781 15.2773Z" fill="#FF981F"/>
</svg>
