<svg xmlns="http://www.w3.org/2000/svg" width="19" height="20" viewBox="0 0 19 20" fill="none">
  <g clip-path="url(#clip0_1_21854)">
    <path d="M15.4383 8.12381C15.4383 9.91652 14.8853 11.5725 13.9538 12.9161L18.6521 17.8646C19.116 18.3528 19.116 19.1456 18.6521 19.6338C18.1882 20.1221 17.4348 20.1221 16.9709 19.6338L12.2727 14.6853C10.996 15.6696 9.42253 16.2476 7.71913 16.2476C3.45505 16.2476 0 12.6114 0 8.12381C0 3.63619 3.45505 0 7.71913 0C11.9832 0 15.4383 3.63619 15.4383 8.12381ZM7.71913 13.748C10.6695 13.748 13.0631 11.2288 13.0631 8.12381C13.0631 5.0188 10.6695 2.49963 7.71913 2.49963C4.76879 2.49963 2.37512 5.0188 2.37512 8.12381C2.37512 11.2288 4.76879 13.748 7.71913 13.748Z" fill="#89868D"/>
  </g>
  <defs>
    <clipPath id="clip0_1_21854">
      <rect width="19" height="20" fill="white"/>
    </clipPath>
  </defs>
</svg>