<svg width="50" height="17" viewBox="0 0 50 17" fill="none" xmlns="http://www.w3.org/2000/svg">
<g clip-path="url(#clip0_1_39376)">
<path d="M25.8588 5.55627C25.8303 7.80549 27.8633 9.06057 29.3947 9.80686C30.9682 10.5725 31.4967 11.0635 31.4904 11.7483C31.4787 12.7961 30.2354 13.2586 29.0719 13.2766C27.042 13.308 25.8617 12.7285 24.9234 12.2903L24.1922 15.7119C25.1336 16.1457 26.8768 16.524 28.6844 16.5406C32.9275 16.5406 35.7035 14.4461 35.7186 11.1987C35.7352 7.07717 30.0178 6.84905 30.0568 5.00686C30.0703 4.44827 30.6033 3.85217 31.7713 3.70061C32.3494 3.62405 33.9453 3.56545 35.7547 4.39866L36.4648 1.08811C35.4918 0.733814 34.2412 0.394556 32.6842 0.394556C28.6904 0.394556 25.8814 2.5176 25.8588 5.55627ZM43.2887 0.679712C42.5139 0.679712 41.8609 1.13166 41.5695 1.82522L35.5084 16.2975H39.7484L40.5922 13.9656H45.7734L46.2629 16.2975H50L46.7389 0.679712H43.2887ZM43.8818 4.89866L45.1055 10.7633H41.7543L43.8818 4.89866ZM20.718 0.679907L17.3758 16.2973H21.4162L24.7568 0.679517H20.718M14.7408 0.679517L10.5354 11.3098L8.83418 2.27131C8.63457 1.26233 7.84629 0.679712 6.9709 0.679712H0.0962891L0 1.13323C1.41133 1.43948 3.01484 1.93342 3.98633 2.46194C4.58086 2.78479 4.75039 3.06702 4.9457 3.8342L8.16777 16.2975H12.4375L18.9836 0.679712H14.7408" fill="url(#paint0_linear_1_39376)"/>
</g>
<defs>
<linearGradient id="paint0_linear_1_39376" x1="22.987" y1="16.8645" x2="23.4544" y2="0.282266" gradientUnits="userSpaceOnUse">
<stop stop-color="#222357"/>
<stop offset="1" stop-color="#254AA5"/>
</linearGradient>
<clipPath id="clip0_1_39376">
<rect width="50" height="16.2109" fill="white" transform="translate(0 0.394531)"/>
</clipPath>
</defs>
</svg>
