<svg width="18" height="19" viewBox="0 0 18 19" fill="none" xmlns="http://www.w3.org/2000/svg">
<mask id="mask0_1_24532" style="mask-type:luminance" maskUnits="userSpaceOnUse" x="0" y="0" width="18" height="19">
<path fill-rule="evenodd" clip-rule="evenodd" d="M0 0H17.9993V18.8569H0V0Z" fill="white"/>
</mask>
<g mask="url(#mask0_1_24532)">
<path fill-rule="evenodd" clip-rule="evenodd" d="M4.27287 16.3832C4.7586 16.3832 5.21668 16.5762 5.70157 16.7806C8.672 18.2194 12.1851 17.5649 14.4739 15.1681C17.4937 12.0027 17.4937 6.85372 14.4739 3.69011C13.0117 2.15831 11.0671 1.3152 8.99693 1.3152C6.92592 1.3152 4.98052 2.15918 3.51917 3.69098C1.22958 6.08782 0.606515 9.76818 1.96737 12.8502C2.16334 13.3582 2.3526 13.853 2.3526 14.3671C2.3526 14.8803 2.18427 15.3971 2.03604 15.8533C1.91378 16.2288 1.7287 16.7955 1.84762 16.9201C1.96402 17.0464 2.50837 16.8473 2.86763 16.7183C3.29892 16.5639 3.78799 16.3867 4.27287 16.3832ZM8.98119 18.8571C7.70156 18.8571 6.41356 18.5737 5.20847 17.9894C4.85339 17.8403 4.52093 17.6999 4.28225 17.6999C4.00757 17.7017 3.63825 17.835 3.2815 17.964C2.54957 18.2272 1.63842 18.5553 0.964272 17.8517C0.292636 17.1472 0.602493 16.1953 0.852054 15.4294C0.975159 15.0522 1.10161 14.6626 1.10161 14.3679C1.10161 14.1257 0.990233 13.8169 0.819393 13.3721C-0.749152 9.82335 -0.0239199 5.54642 2.63666 2.76093C4.33501 0.980844 6.59529 0 9.00129 0C11.4073 0 13.6684 0.979966 15.3668 2.76005C18.8773 6.43777 18.8773 12.4211 15.3668 16.0988C13.6458 17.9026 11.3286 18.8571 8.98119 18.8571Z" fill="white"/>
</g>
<path fill-rule="evenodd" clip-rule="evenodd" d="M12.3096 10.6711C11.8473 10.6711 11.4688 10.279 11.4688 9.79382C11.4688 9.30867 11.8397 8.9165 12.302 8.9165H12.3096C12.7718 8.9165 13.147 9.30867 13.147 9.79382C13.147 10.279 12.7718 10.6711 12.3096 10.6711Z" fill="white"/>
<path fill-rule="evenodd" clip-rule="evenodd" d="M8.94627 10.6711C8.484 10.6711 8.10547 10.279 8.10547 9.79382C8.10547 9.30867 8.47562 8.9165 8.93873 8.9165H8.94627C9.40854 8.9165 9.78372 9.30867 9.78372 9.79382C9.78372 10.279 9.40854 10.6711 8.94627 10.6711Z" fill="white"/>
<path fill-rule="evenodd" clip-rule="evenodd" d="M5.5908 10.6711C5.12853 10.6711 4.75 10.279 4.75 9.79382C4.75 9.30867 5.12099 8.9165 5.58326 8.9165H5.5908C6.05307 8.9165 6.42825 9.30867 6.42825 9.79382C6.42825 10.279 6.05307 10.6711 5.5908 10.6711Z" fill="white"/>
</svg>
